<svg class="animated" id="freepik_stories-diabetes" xmlns="http://www.w3.org/2000/svg" viewBox="0 0 500 500" version="1.1" xmlns:xlink="http://www.w3.org/1999/xlink" xmlns:svgjs="http://svgjs.com/svgjs"><style>svg#freepik_stories-diabetes:not(.animated) .animable {opacity: 0;}svg#freepik_stories-diabetes.animated #freepik--character-1--inject-31 {animation: 1.5s Infinite  linear floating;animation-delay: 0s;}svg#freepik_stories-diabetes.animated #freepik--character-2--inject-31 {animation: 1.5s Infinite  linear floating;animation-delay: 0s;}            @keyframes floating {                0% {                    opacity: 1;                    transform: translateY(0px);                }                50% {                    transform: translateY(-10px);                }                100% {                    opacity: 1;                    transform: translateY(0px);                }            }        </style><g id="freepik--background-complete--inject-31" class="animable" style="transform-origin: 250px 228.23px;"><rect y="382.4" width="500" height="0.25" style="fill: rgb(235, 235, 235); transform-origin: 250px 382.525px;" id="el3z0qxcdzive" class="animable"></rect><rect x="416.78" y="398.49" width="33.12" height="0.25" style="fill: rgb(235, 235, 235); transform-origin: 433.34px 398.615px;" id="el77qjk58tjk" class="animable"></rect><rect x="322.53" y="401.21" width="8.69" height="0.25" style="fill: rgb(235, 235, 235); transform-origin: 326.875px 401.335px;" id="elkk3cd1y5ydp" class="animable"></rect><rect x="396.59" y="389.21" width="19.19" height="0.25" style="fill: rgb(235, 235, 235); transform-origin: 406.185px 389.335px;" id="elrakyy2kzdnd" class="animable"></rect><rect x="52.46" y="390.89" width="43.19" height="0.25" style="fill: rgb(235, 235, 235); transform-origin: 74.055px 391.015px;" id="elylbzgum49gj" class="animable"></rect><rect x="104.56" y="390.89" width="6.33" height="0.25" style="fill: rgb(235, 235, 235); transform-origin: 107.725px 391.015px;" id="elswyeznuo1" class="animable"></rect><rect x="131.47" y="395.11" width="93.68" height="0.25" style="fill: rgb(235, 235, 235); transform-origin: 178.31px 395.235px;" id="el8vi68gpev9b" class="animable"></rect><path d="M237,337.8H43.91a5.71,5.71,0,0,1-5.7-5.71V60.66A5.71,5.71,0,0,1,43.91,55H237a5.71,5.71,0,0,1,5.71,5.71V332.09A5.71,5.71,0,0,1,237,337.8ZM43.91,55.2a5.46,5.46,0,0,0-5.45,5.46V332.09a5.46,5.46,0,0,0,5.45,5.46H237a5.47,5.47,0,0,0,5.46-5.46V60.66A5.47,5.47,0,0,0,237,55.2Z" style="fill: rgb(235, 235, 235); transform-origin: 140.46px 196.4px;" id="elougtbi7txud" class="animable"></path><path d="M453.31,337.8H260.21a5.72,5.72,0,0,1-5.71-5.71V60.66A5.72,5.72,0,0,1,260.21,55h193.1A5.71,5.71,0,0,1,459,60.66V332.09A5.71,5.71,0,0,1,453.31,337.8ZM260.21,55.2a5.47,5.47,0,0,0-5.46,5.46V332.09a5.47,5.47,0,0,0,5.46,5.46h193.1a5.47,5.47,0,0,0,5.46-5.46V60.66a5.47,5.47,0,0,0-5.46-5.46Z" style="fill: rgb(235, 235, 235); transform-origin: 356.75px 196.4px;" id="elp1ywvse10fn" class="animable"></path><path d="M413.82,346c0-.39,1.34-39.67,7.73-45.88,6.22-6,13.35-.23,13.65,0l.64-.77c-.08-.07-8.13-6.64-15,0-6.67,6.49-8,44.94-8,46.57Z" style="fill: rgb(224, 224, 224); transform-origin: 424.34px 321.192px;" id="elyh9jl3fopj" class="animable"></path><path d="M413.27,353.75c.05-.47,4.37-47.15-12.68-66.72l-.76.66c16.77,19.24,12.49,65.5,12.44,66Z" style="fill: rgb(224, 224, 224); transform-origin: 406.812px 320.39px;" id="elvfb3du4ggdg" class="animable"></path><path d="M413.9,348.82l1-.07c0-.53-3.34-53.08,9.17-64.58l-.68-.74C410.53,295.26,413.76,346.63,413.9,348.82Z" style="fill: rgb(224, 224, 224); transform-origin: 418.755px 316.125px;" id="el3llj2so4e2r" class="animable"></path><path d="M412.27,348.79h1c0-1.45-.41-35.49-10.08-41a6.85,6.85,0,0,0-6.26-.61c-5.85,2.42-8.74,12.83-8.86,13.27l1,.26c0-.1,2.89-10.37,8.29-12.6a5.86,5.86,0,0,1,5.37.55C411.87,313.87,412.27,348.44,412.27,348.79Z" style="fill: rgb(224, 224, 224); transform-origin: 400.67px 327.741px;" id="elb8mfyfqjk6" class="animable"></path><path d="M416,348.81l1-.06c0-.26-1.46-26.9,5.73-36.29,1.74-2.27,3.63-3.35,5.63-3.21,4.71.33,8.66,7.22,8.69,7.29l.88-.49c-.18-.31-4.26-7.43-9.5-7.8-2.35-.17-4.54,1.05-6.5,3.61C414.56,321.54,416,347.7,416,348.81Z" style="fill: rgb(224, 224, 224); transform-origin: 426.908px 328.522px;" id="elyyh534oq4pb" class="animable"></path><path d="M414.46,352.43c.2-2.58,4.7-63.4-3.22-74.12l-.81.6c7.71,10.42,3.08,72.82,3,73.45Z" style="fill: rgb(224, 224, 224); transform-origin: 413.171px 315.37px;" id="el6pcpwuhp526" class="animable"></path><path d="M394.78,313.3s4.75,1.75,3.34,5.89-16.45,10.94-16.45,10.94-6.29-5.77-.51-15.15S394.65,310.34,394.78,313.3Z" style="fill: rgb(235, 235, 235); transform-origin: 388.549px 319.787px;" id="el8nhkp03q7h9" class="animable"></path><path d="M415.44,305.42s-5.06-.21-5.35,4.15,11,16.43,11,16.43,8-2.9,6.3-13.79S416.7,302.74,415.44,305.42Z" style="fill: rgb(235, 235, 235); transform-origin: 418.856px 314.757px;" id="elka4bc6rin9" class="animable"></path><path d="M419.73,284.54s-3.38-.36-3.11-2.42,13.12-7.35,20.7,1.21c0,0-4.85,8.34-11.87,8.45S419.73,284.54,419.73,284.54Z" style="fill: rgb(235, 235, 235); transform-origin: 426.962px 285.195px;" id="elkr3nb2vzxl" class="animable"></path><path d="M413.44,279.55s3.05,1.47,3.91-.41-7.25-13.18-18.21-9.93c0,0-.29,9.65,5.61,13.45S413.44,279.55,413.44,279.55Z" style="fill: rgb(235, 235, 235); transform-origin: 408.275px 276.214px;" id="elq83cjwdn9wr" class="animable"></path><path d="M429.42,311.63s-2.33-1.88.18-2.8,14.85-.65,15,11.57c0,0-14.37,2.38-16.15-2.27S429.42,311.63,429.42,311.63Z" style="fill: rgb(235, 235, 235); transform-origin: 436.225px 314.758px;" id="el35x56549yzi" class="animable"></path><path d="M400.12,284.23s2.33-1.88-.18-2.8-14.85-.65-15,11.56c0,0,14.37,2.39,16.15-2.26S400.12,284.23,400.12,284.23Z" style="fill: rgb(235, 235, 235); transform-origin: 393.315px 287.355px;" id="el96bdtgksz8j" class="animable"></path><path d="M407.72,294.07s.2-2.28-1.64-1.39-8.28,7.84-1.61,14.42c0,0,9-6.65,7.35-10.11S407.72,294.07,407.72,294.07Z" style="fill: rgb(235, 235, 235); transform-origin: 406.767px 299.787px;" id="elvjhqq4p52uo" class="animable"></path><path d="M431.5,297.33s-1.39-1.82.65-2.05,11.17,2.21,9.05,11.34c0,0-11.14-.84-11.61-4.63S431.5,297.33,431.5,297.33Z" style="fill: rgb(235, 235, 235); transform-origin: 435.523px 300.943px;" id="elg9lnyed6iq8" class="animable"></path><polygon points="393.89 382.65 432.09 382.65 436.21 340.83 389.77 340.83 393.89 382.65" style="fill: rgb(240, 240, 240); transform-origin: 412.99px 361.74px;" id="elme2fv1gmapm" class="animable"></polygon><g id="elyk9fzreyyrm"><rect x="387.73" y="336.21" width="50.52" height="9.23" style="fill: rgb(230, 230, 230); transform-origin: 412.99px 340.825px; transform: rotate(180deg);" class="animable"></rect></g><rect x="52.15" y="116.55" width="98.72" height="266.1" style="fill: rgb(235, 235, 235); transform-origin: 101.51px 249.6px;" id="elc3412bvp3nl" class="animable"></rect><rect x="60.87" y="145.82" width="22.72" height="99.29" style="fill: rgb(250, 250, 250); transform-origin: 72.23px 195.465px;" id="elp0dnxa0n5zl" class="animable"></rect><path d="M68.56,265.16A4.53,4.53,0,1,1,64,260.63,4.53,4.53,0,0,1,68.56,265.16Z" style="fill: rgb(224, 224, 224); transform-origin: 64.03px 265.16px;" id="el7086usg73e" class="animable"></path><rect x="82.56" y="98.3" width="37.89" height="8.94" style="fill: rgb(245, 245, 245); transform-origin: 101.505px 102.77px;" id="elb44984roeeo" class="animable"></rect><g id="elgds03py4xl4"><rect x="323.99" y="131.36" width="111.57" height="87.82" style="fill: rgb(230, 230, 230); transform-origin: 379.775px 175.27px; transform: rotate(90deg);" class="animable"></rect></g><rect x="337.87" y="121.48" width="83.82" height="107.57" style="fill: rgb(240, 240, 240); transform-origin: 379.78px 175.265px;" id="eleqd6be2sd1d" class="animable"></rect><path d="M400.09,171.91c-3.25,3.59-4.06-3.54-4.06-3.54l-9.29-15.78-2,16.2,7,50.2s6.4,1.9,6.81,3-11,1.36-12.18,0,1.22-3,1.22-3l-8.79-41.5-.14.66L370,219s2.43,1.62,1.21,3S358.6,223,359,222s6.8-3,6.8-3l7-50.2-2-16.2-9.29,15.78s-.81,7.13-4.06,3.54,2.44-6.83,2.44-6.83L370,147.56l5.57-1.93,1.23-1.55s-7.15-12.83,1.85-13.08v0h.27v0c9,.25,1.86,13.08,1.86,13.08l1.23,1.55,5.57,1.93,10.1,17.52S403.33,168.33,400.09,171.91Z" style="fill: rgb(250, 250, 250); transform-origin: 378.77px 176.958px;" id="elopjalle2c7g" class="animable"></path><path d="M378.62,131v47.15L370,219s2.43,1.62,1.21,3S358.6,223,359,222s6.8-3,6.8-3l7-50.2-2-16.2-9.29,15.78s-.81,7.13-4.06,3.54,2.44-6.83,2.44-6.83L370,147.56l5.57-1.93,1.23-1.55S369.62,131.25,378.62,131Z" style="fill: rgb(230, 230, 230); transform-origin: 367.534px 176.949px;" id="el5qmgexxfz8m" class="animable"></path><rect x="397.15" y="134" width="11.6" height="4.52" style="fill: rgb(230, 230, 230); transform-origin: 402.95px 136.26px;" id="elalu93trlvxq" class="animable"></rect><rect x="401.09" y="154.34" width="11.6" height="4.52" style="fill: rgb(230, 230, 230); transform-origin: 406.89px 156.6px;" id="eliclw7f4fcj9" class="animable"></rect><rect x="345.99" y="175.68" width="11.6" height="4.52" style="fill: rgb(230, 230, 230); transform-origin: 351.79px 177.94px;" id="elpsk2eb7g5q" class="animable"></rect><rect x="350.63" y="133.83" width="11.6" height="4.52" style="fill: rgb(230, 230, 230); transform-origin: 356.43px 136.09px;" id="elsnbgi7zfkig" class="animable"></rect><rect x="397.15" y="183.19" width="11.6" height="4.52" style="fill: rgb(230, 230, 230); transform-origin: 402.95px 185.45px;" id="elup319h6fxok" class="animable"></rect><rect x="349.17" y="200.49" width="11.6" height="4.52" style="fill: rgb(230, 230, 230); transform-origin: 354.97px 202.75px;" id="ellkvqanz69g" class="animable"></rect><rect x="402.96" y="205.01" width="11.6" height="4.52" style="fill: rgb(230, 230, 230); transform-origin: 408.76px 207.27px;" id="elqadcxkqopq" class="animable"></rect><g id="els51ayuayth"><rect x="228.32" y="172.62" width="112.63" height="84.81" style="fill: rgb(230, 230, 230); transform-origin: 284.635px 215.025px; transform: rotate(-90deg);" class="animable"></rect></g><rect x="244.23" y="160.71" width="80.81" height="108.63" style="fill: rgb(245, 245, 245); transform-origin: 284.635px 215.025px;" id="elvm5veds9xg" class="animable"></rect><rect x="244.23" y="160.71" width="80.81" height="27" style="fill: rgb(250, 250, 250); transform-origin: 284.635px 174.21px;" id="ell1c2d6ly21g" class="animable"></rect><rect x="244.23" y="212.69" width="80.81" height="29.69" style="fill: rgb(250, 250, 250); transform-origin: 284.635px 227.535px;" id="elkts1qzb701c" class="animable"></rect><circle cx="309.28" cy="173.01" r="8.18" style="fill: rgb(245, 245, 245); transform-origin: 309.28px 173.01px;" id="elu3ebegdt6dl" class="animable"></circle><g id="elhlxyi2w3t8d"><circle cx="256.68" cy="200.02" r="8.18" style="fill: rgb(250, 250, 250); transform-origin: 256.68px 200.02px; transform: rotate(-80.78deg);" class="animable"></circle></g><g id="elaxzmhi1vzy"><circle cx="310.25" cy="228.87" r="8.18" style="fill: rgb(245, 245, 245); transform-origin: 310.25px 228.87px; transform: rotate(-22.5deg);" class="animable"></circle></g><circle cx="257.65" cy="255.88" r="8.18" style="fill: rgb(250, 250, 250); transform-origin: 257.65px 255.88px;" id="elmmyk5uw7jp" class="animable"></circle></g><g id="freepik--Shadow--inject-31" class="animable" style="transform-origin: 250px 416.16px;"><ellipse id="freepik--path--inject-31" cx="250" cy="416.16" rx="195.18" ry="11.4" style="fill: rgb(245, 245, 245); transform-origin: 250px 416.16px;" class="animable"></ellipse></g><g id="freepik--character-1--inject-31" class="animable animator-active" style="transform-origin: 150.415px 315.145px;"><path d="M122.44,418.7H92.93a4.53,4.53,0,0,1-3.55-1.6,4.71,4.71,0,0,1-1-3.89L101.6,340h40l-13.28,73.77A6.11,6.11,0,0,1,122.44,418.7Zm-18.26-75.61L91.46,413.76a1.64,1.64,0,0,0,.29,1.35,1.46,1.46,0,0,0,1.18.5h29.51a3,3,0,0,0,2.78-2.4l12.63-70.12Z" style="fill: rgb(64, 123, 255); transform-origin: 114.948px 379.35px;" id="el9cc666r5sln" class="animable"></path><g id="eljgbs64hsiea"><g style="opacity: 0.4; transform-origin: 114.964px 379.35px;" class="animable"><path d="M101.6,340,89.75,405.8l-1.33,7.42a4.7,4.7,0,0,0,1,3.88,4.55,4.55,0,0,0,3.55,1.61h29.51a6.12,6.12,0,0,0,5.83-4.95l1.78-9.87,11.5-63.9Zm25.28,64.06-1.65,9.17a3,3,0,0,1-2.79,2.39H92.93a1.48,1.48,0,0,1-1.18-.5,1.61,1.61,0,0,1-.28-1.35l1.45-8.11,11.26-62.56h33.66Z" style="fill: rgb(255, 255, 255); transform-origin: 114.964px 379.35px;" id="el1hwrcqjtx7x" class="animable"></path></g></g><g id="elwug2wc393va"><path d="M141.55,340l-11.5,63.9-3.17.16,11-61H104.18L92.92,405.65l-3.17.15L101.6,340Z" style="opacity: 0.2; transform-origin: 115.65px 372.9px;" class="animable"></path></g><path d="M139.76,342.5H99.81L86.63,269.28a4.69,4.69,0,0,1,1-3.88,4.52,4.52,0,0,1,3.55-1.61h29.51a6.12,6.12,0,0,1,5.84,4.94Zm-37.36-3.09h33.66l-12.62-70.13a3,3,0,0,0-2.79-2.39H91.14a1.47,1.47,0,0,0-1.17.49,1.58,1.58,0,0,0-.29,1.35Z" style="fill: rgb(64, 123, 255); transform-origin: 113.153px 303.145px;" id="el81l0v32inxp" class="animable"></path><g id="elcne9kmk41ii"><g style="opacity: 0.4; transform-origin: 113.153px 303.145px;" class="animable"><path d="M139.76,342.5H99.81L86.63,269.28a4.69,4.69,0,0,1,1-3.88,4.52,4.52,0,0,1,3.55-1.61h29.51a6.12,6.12,0,0,1,5.84,4.94Zm-37.36-3.09h33.66l-12.62-70.13a3,3,0,0,0-2.79-2.39H91.14a1.47,1.47,0,0,0-1.17.49,1.58,1.58,0,0,0-.29,1.35Z" style="fill: rgb(255, 255, 255); transform-origin: 113.153px 303.145px;" id="el5ozti4xtarp" class="animable"></path></g></g><path d="M135.92,418.7a1.53,1.53,0,0,1-1.52-1.27l-13-71.95a4.69,4.69,0,0,1,1-3.88A4.5,4.5,0,0,1,126,340h29.51a6.11,6.11,0,0,1,5.83,4.94l12.95,71.95a1.55,1.55,0,0,1-3.05.55l-12.95-71.95a3,3,0,0,0-2.78-2.39H126a1.49,1.49,0,0,0-1.18.49,1.65,1.65,0,0,0-.29,1.35l13,71.95a1.54,1.54,0,0,1-1.25,1.8A1.23,1.23,0,0,1,135.92,418.7Z" style="fill: rgb(64, 123, 255); transform-origin: 147.813px 379.353px;" id="elu1a1gpq3yp" class="animable"></path><g id="el9xrridthoi"><g style="opacity: 0.4; transform-origin: 147.813px 379.353px;" class="animable"><path d="M135.92,418.7a1.53,1.53,0,0,1-1.52-1.27l-13-71.95a4.69,4.69,0,0,1,1-3.88A4.5,4.5,0,0,1,126,340h29.51a6.11,6.11,0,0,1,5.83,4.94l12.95,71.95a1.55,1.55,0,0,1-3.05.55l-12.95-71.95a3,3,0,0,0-2.78-2.39H126a1.49,1.49,0,0,0-1.18.49,1.65,1.65,0,0,0-.29,1.35l13,71.95a1.54,1.54,0,0,1-1.25,1.8A1.23,1.23,0,0,1,135.92,418.7Z" style="fill: rgb(255, 255, 255); transform-origin: 147.813px 379.353px;" id="elkv7thbpkzvq" class="animable"></path></g></g><path d="M165,338.59H99.79a5.7,5.7,0,0,1,5.7-5.69h53.79a5.7,5.7,0,0,1,5.7,5.69Z" style="fill: rgb(64, 123, 255); transform-origin: 132.395px 335.745px;" id="elnqmjq65743a" class="animable"></path><rect x="98.15" y="338.3" width="68.47" height="6.48" rx="1.03" style="fill: rgb(64, 123, 255); transform-origin: 132.385px 341.54px;" id="eleb0p360oh9m" class="animable"></rect><g id="elq6tsnfyhjjf"><g style="opacity: 0.6; transform-origin: 132.385px 341.54px;" class="animable"><rect x="98.15" y="338.3" width="68.47" height="6.48" rx="1.03" style="fill: rgb(255, 255, 255); transform-origin: 132.385px 341.54px;" id="el6bnbckkz1rb" class="animable"></rect></g></g><path d="M174.32,281.5l4.17.94a6.89,6.89,0,0,0,3.45-2.13c1.78-1.86,8.82-.86,8.82-.86s2.69,6.51,1.9,7.38-9.62.57-10.72.49a5.44,5.44,0,0,1-2.28-.92l-6.15-.73Z" style="fill: rgb(235, 179, 118); transform-origin: 183.158px 283.308px;" id="elt47f9gri3x" class="animable"></path><path d="M179,281.36a14,14,0,0,1-3-2.79c-2.34-3.1-7.14-19.09-11-23.09,0,0-6.59,7.73-4.55,17.4a17.61,17.61,0,0,0,.92,3.05c2.49,6.26,6.5,9.41,10.19,10.56a17.1,17.1,0,0,0,5.73.54Z" style="fill: rgb(64, 123, 255); transform-origin: 169.529px 271.279px;" id="elygv2tmkyxk" class="animable"></path><g id="el850z06ur056"><path d="M171.52,286.49c-3.69-1.15-7.7-4.3-10.19-10.56a17.61,17.61,0,0,1-.92-3.05l3.38-8.41C163.78,264.62,174.1,277.9,171.52,286.49Z" style="opacity: 0.2; isolation: isolate; transform-origin: 166.172px 275.48px;" class="animable"></path></g><path d="M113.49,293.3l48.83,5.22.37,16.15c1.25.34,2.49.65,3.73.95V336c-13-.68-51.32,4.06-58.59-6.21C103.63,323.88,113.49,293.3,113.49,293.3Z" style="fill: rgb(38, 50, 56); transform-origin: 136.604px 314.907px;" id="el8vsa51ki8u" class="animable"></path><polygon points="176.65 406.16 183.69 406.68 188.1 390.63 181.07 390.12 176.65 406.16" style="fill: rgb(235, 179, 118); transform-origin: 182.375px 398.4px;" id="elhx0yjr984ng" class="animable"></polygon><path d="M184.67,407a.07.07,0,0,0,0,.06h.05a9.79,9.79,0,0,0,1.73.74,2,2,0,0,0,1.37,0,.9.9,0,0,0,.44-.83.61.61,0,0,0-.24-.55,2.86,2.86,0,0,0-2-.06,2.59,2.59,0,0,0,1-1.43.6.6,0,0,0-.42-.63.81.81,0,0,0-.71,0c-.85.47-1.18,2.43-1.21,2.54h0s-.12,0-.12,0A.09.09,0,0,0,184.67,407Zm.52-.39-.16,0c.17-.65.52-1.71,1-2a.46.46,0,0,1,.38-.05l.08,0c.22.09.24.22.23.32C186.69,405.43,185.88,406.22,185.19,406.6Zm0,.37c.93-.29,2.21-.54,2.61-.24a.3.3,0,0,1,.12.27.62.62,0,0,1-.27.53C187.27,407.75,186.37,407.54,185.22,407Z" style="fill: rgb(64, 123, 255); transform-origin: 186.391px 406.07px;" id="elj9q9sv44pd" class="animable"></path><g id="elyyres1cvsnh"><polygon points="181.07 390.12 188.1 390.64 185.57 399.81 178.63 398.96 181.07 390.12" style="opacity: 0.2; isolation: isolate; transform-origin: 183.365px 394.965px;" class="animable"></polygon></g><path d="M190.48,398.68,178.09,395S195.68,343.1,193,338.8c-.31-.5-63.19-16.9-63.19-16.9l16.68-15.56S212.9,316.47,214.27,334C214.93,342.39,190.48,398.68,190.48,398.68Z" style="fill: rgb(38, 50, 56); transform-origin: 172.047px 352.51px;" id="elys9k6e4djac" class="animable"></path><polygon points="176.49 395.31 191.41 399.53 194.09 393.32 177.63 389.01 176.49 395.31" style="fill: rgb(64, 123, 255); transform-origin: 185.29px 394.27px;" id="elansz9se2s5k" class="animable"></polygon><g id="el1pybaokflxn"><polygon points="176.49 395.31 191.41 399.53 194.09 393.32 177.63 389.01 176.49 395.31" style="fill: rgb(255, 255, 255); opacity: 0.2; transform-origin: 185.29px 394.27px;" class="animable"></polygon></g><path d="M184.38,406l-7.62-2.13a.51.51,0,0,0-.64.32h0l-2.05,5.93a1.23,1.23,0,0,0,.85,1.53c2.67.7,4,.9,7.34,1.81a64.69,64.69,0,0,0,9,2.22c2.94.34,3.19-2.58,2-3a19.31,19.31,0,0,1-7.82-6A2,2,0,0,0,184.38,406Z" style="fill: rgb(38, 50, 56); transform-origin: 183.974px 409.776px;" id="elr436hc5xs3" class="animable"></path><polygon points="149.17 412.37 156.16 411.41 157.13 394.79 150.15 395.76 149.17 412.37" style="fill: rgb(235, 179, 118); transform-origin: 153.15px 403.58px;" id="el3yb16cwmop1" class="animable"></polygon><g id="elxrx5s4xkqra"><polygon points="150.15 395.76 157.13 394.8 156.57 404.3 149.6 404.91 150.15 395.76" style="opacity: 0.2; isolation: isolate; transform-origin: 153.365px 399.855px;" class="animable"></polygon></g><path d="M127.05,313.87s-22.67,10-19.47,15.93c5.72,10.58,28.24,5.3,40.21,8,3,.65.47,63.41.47,63.41l12.87,1s6.35-51.68,6.58-73.82C167.81,319.49,162.67,313.87,127.05,313.87Z" style="fill: rgb(38, 50, 56); transform-origin: 137.491px 358.04px;" id="eldnk0147w0at" class="animable"></path><polygon points="146.75 401.79 162.22 402.81 163.55 396.18 146.55 395.39 146.75 401.79" style="fill: rgb(64, 123, 255); transform-origin: 155.05px 399.1px;" id="elow372aesgaj" class="animable"></polygon><g id="eluign269fza"><polygon points="146.75 401.79 162.22 402.81 163.55 396.18 146.55 395.39 146.75 401.79" style="fill: rgb(255, 255, 255); opacity: 0.2; transform-origin: 155.05px 399.1px;" class="animable"></polygon></g><path d="M156.85,411.43l.15,0s.16.05.18.06,0,0,0,.05h.06a8.81,8.81,0,0,0,1.84.36,1.91,1.91,0,0,0,1.34-.26.88.88,0,0,0,.25-.91.64.64,0,0,0-.35-.49,3,3,0,0,0-1.95.36,2.53,2.53,0,0,0,.69-1.61.67.67,0,0,0-.6-.53,1,1,0,0,0-.78.18c-.74.64-.86,2.63-.86,2.75h0Zm.76-.41-.14.08a3.55,3.55,0,0,1,.59-2.16.48.48,0,0,1,.36-.12h.08c.23,0,.29.16.3.25A3.34,3.34,0,0,1,157.61,411Zm.1.35c.85-.47,2.06-1,2.51-.78a.3.3,0,0,1,.17.24.61.61,0,0,1-.15.58C159.88,411.71,159,411.7,157.71,411.37Z" style="fill: rgb(64, 123, 255); transform-origin: 158.764px 410.186px;" id="elz5oy0j9xaep" class="animable"></path><path d="M156.69,410.57l-7.9-.5a.5.5,0,0,0-.55.45h0l-.77,6.23a1.25,1.25,0,0,0,1.15,1.32c2.76.13,4.08.05,7.56.24a64.43,64.43,0,0,0,9.28.29c3-.28,2.59-3.18,1.32-3.32a19.5,19.5,0,0,1-8.9-4.24A1.93,1.93,0,0,0,156.69,410.57Z" style="fill: rgb(38, 50, 56); transform-origin: 157.604px 414.361px;" id="el1zoof408n6f" class="animable"></path><path d="M162.48,281.72c-.16,3.75-.26,7.75-.23,11.9,0,1.61,0,3.25.07,4.9,0,0-17.26,16.4-49.31-3.66A236.6,236.6,0,0,1,123.41,263h0c.81-1.93,1.65-3.84,2.55-5.71a83.6,83.6,0,0,1,5.35-9.75s7.56-3.68,17.77,0A65.32,65.32,0,0,1,165,255.48,246.9,246.9,0,0,0,162.48,281.72Z" style="fill: rgb(64, 123, 255); transform-origin: 139.005px 275.369px;" id="ela5d27ho181w" class="animable"></path><path d="M139,250.47s-.89-7.7,6-5.6,11.5,3.28,12.49,9.68l-3.36-1.6-5,4.05-6.66-7.79Z" style="fill: rgb(64, 123, 255); transform-origin: 148.226px 250.754px;" id="el2vxqlbr4s9q" class="animable"></path><g id="el6zppf7ym5o"><path d="M139,250.47s-.89-7.7,6-5.6,11.5,3.28,12.49,9.68l-3.36-1.6-5,4.05-6.66-7.79Z" style="fill: rgb(255, 255, 255); opacity: 0.7; isolation: isolate; transform-origin: 148.226px 250.754px;" class="animable"></path></g><path d="M143.26,247l5.92,9.05,4.55-4.79a6.86,6.86,0,0,1-.18-2.68,8.68,8.68,0,0,1,1.6-4.2l-4.81-8.9-1.69-3.14C147.68,237.81,146.48,243.11,143.26,247Z" style="fill: rgb(235, 179, 118); transform-origin: 149.205px 244.195px;" id="el9j3nsvbpjk" class="animable"></path><g id="eljgflmxt7i9a"><path d="M153.55,248.58a8.68,8.68,0,0,1,1.6-4.2l-4.81-8.9S148.2,244.09,153.55,248.58Z" style="opacity: 0.3; isolation: isolate; transform-origin: 152.534px 242.03px;" class="animable"></path></g><path d="M162.63,222.9c-3.33,1.51-2.57,5.17,3.25,11.71,3.35-3.08,5-9.9,3.12-12S165.53,221.6,162.63,222.9Z" style="fill: rgb(38, 50, 56); transform-origin: 165.224px 228.02px;" id="el935fwvho4k" class="animable"></path><path d="M148.84,226.23s-4.55,11,2.12,17.05c4.85,4.38,11.54,5.3,16.49-.12,3.87-4.24,1.57-9.63,1.57-9.63.79-5.55-.11-11.66-4.62-14.58a10.1,10.1,0,0,0-15.56,7.28Z" style="fill: rgb(235, 179, 118); transform-origin: 158.512px 232.102px;" id="elmgz2ketqb4g" class="animable"></path><g id="elzyg5rav9t"><path d="M169,240.69a8,8,0,0,1-1.58,2.47c-4.94,5.42-11.63,4.5-16.48.12a9.88,9.88,0,0,1-1.59-1.81c-1.51-5.2.42-12.39,1.61-13a7,7,0,0,0,2.8,7s4.55-1,5.49,0,3,3.25,4.31,3.63,1.65,2.91,1.65,2.91A12.42,12.42,0,0,0,169,240.69Z" style="opacity: 0.2; isolation: isolate; transform-origin: 158.898px 237.686px;" class="animable"></path></g><path d="M159.3,230.29c-.11.59.11,1.13.5,1.2s.78-.34.89-.93-.1-1.13-.48-1.2S159.45,229.72,159.3,230.29Z" style="fill: rgb(38, 50, 56); transform-origin: 159.995px 230.425px;" id="elwqvypxz458" class="animable"></path><path d="M166,231.58c-.11.59.12,1.13.5,1.21s.79-.34.91-.94-.11-1.13-.5-1.2S166.13,231,166,231.58Z" style="fill: rgb(38, 50, 56); transform-origin: 166.707px 231.721px;" id="el4ho4xar1gnj" class="animable"></path><path d="M163.77,231.44a21.69,21.69,0,0,0,1.86,5.6,3.48,3.48,0,0,1-2.93,0Z" style="fill: rgb(213, 135, 69); transform-origin: 164.165px 234.402px;" id="ellj0ucyau86o" class="animable"></path><path d="M157.87,227.82a.29.29,0,0,1-.21-.09.36.36,0,0,1,0-.5,3.49,3.49,0,0,1,3.1-.89.33.33,0,0,1,.25.41v0a.35.35,0,0,1-.43.25h0a2.8,2.8,0,0,0-2.44.73A.34.34,0,0,1,157.87,227.82Z" style="fill: rgb(38, 50, 56); transform-origin: 159.29px 227.046px;" id="el0hx5hzoqutnf" class="animable"></path><path d="M169.5,229.9a.36.36,0,0,1-.28-.25,2.8,2.8,0,0,0-1.65-2,.35.35,0,0,1-.22-.44.34.34,0,0,1,.43-.23,3.52,3.52,0,0,1,2.12,2.43.34.34,0,0,1-.24.43h0A.29.29,0,0,1,169.5,229.9Z" style="fill: rgb(38, 50, 56); transform-origin: 168.624px 228.432px;" id="el7b0fs90ukgg" class="animable"></path><path d="M152.52,220.19c3.24,1.68,2.27,5.3-3.91,11.49-3.18-3.27-4.44-10.18-2.43-12.17S149.69,218.72,152.52,220.19Z" style="fill: rgb(38, 50, 56); transform-origin: 149.773px 225.072px;" id="el8xxv02s1hix" class="animable"></path><path d="M144.28,231.38a7,7,0,0,0,2.49,4.76c1.91,1.56,3.85.09,4.15-2.22.27-2.09-.41-5.42-2.72-6.08S144.08,229.1,144.28,231.38Z" style="fill: rgb(235, 179, 118); transform-origin: 147.62px 232.247px;" id="elpjm5df85wx" class="animable"></path><path d="M161.33,240.84a5.17,5.17,0,0,0-4.12-3.46" style="fill: none; stroke: rgb(38, 50, 56); stroke-linecap: round; stroke-linejoin: round; stroke-width: 0.526291px; transform-origin: 159.27px 239.11px;" id="elikvsxq86m0c" class="animable"></path><path d="M160.36,219.94a8.75,8.75,0,0,1-9.06,6c-7.11-.51-8.1-4.65-8.1-4.65a14.36,14.36,0,0,0,1.71.36,6.13,6.13,0,0,1,.84-6.31c2.47-2.84,9.92-5.14,14.91-2.79,0,0,5.43-1.29,9.76,2.17,6.56,5.25,2.94,8.68,2.94,8.68s1-2.08-1.49-4.61c0,0,1.9,7.36-2.58,8.66C169.29,227.41,169.78,220.48,160.36,219.94Z" style="fill: rgb(38, 50, 56); transform-origin: 158.778px 219.514px;" id="elxwgoc3pll07" class="animable"></path><g id="ellv0q71xbemn"><path d="M162.48,281.72c-.16,3.75-.26,7.75-.23,11.9a21.57,21.57,0,0,1-22.87,3.86c-15-6.05-19.28-20.5-16-34.46h0A12.76,12.76,0,0,1,126,257.3c3.87-4.22,9.31,2.78,9.31,2.78,0,.4,3.1,14,6.14,17.46C144.28,280.79,160.39,281.63,162.48,281.72Z" style="opacity: 0.2; isolation: isolate; transform-origin: 142.411px 277.567px;" class="animable"></path></g><path d="M149,282.46l4.17.94a6.89,6.89,0,0,0,3.45-2.13c1.78-1.85,8.82-.85,8.82-.85s2.69,6.5,1.9,7.38-9.62.57-10.72.48a5.41,5.41,0,0,1-2.27-.91l-6.16-.74Z" style="fill: rgb(235, 179, 118); transform-origin: 157.838px 284.278px;" id="elkcbeueg9tyb" class="animable"></path><path d="M131.31,247.55c-10,4.28-9.11,25.39-5.88,32.8s24.14,7.86,24.14,7.86L151,282s-13-3.22-14.92-6.1-1.35-10.06-.87-14.76A18.17,18.17,0,0,0,131.31,247.55Z" style="fill: rgb(64, 123, 255); transform-origin: 137.112px 267.88px;" id="elwwnq85appj" class="animable"></path></g><g id="freepik--Table--inject-31" class="animable" style="transform-origin: 235.72px 339.29px;"><polygon points="331.54 285.22 331.54 418.9 325.27 418.9 325.27 297.22 254.13 297.22 254.13 418.9 247.85 418.9 247.85 297.22 223.6 297.22 223.6 418.9 217.31 418.9 217.31 297.22 146.18 297.22 146.18 418.9 139.9 418.9 139.9 285.22 331.54 285.22" style="fill: rgb(64, 123, 255); transform-origin: 235.72px 352.06px;" id="ely69nmiormn" class="animable"></polygon><g id="elkws62o6quhc"><polygon points="331.54 285.22 331.54 418.9 325.27 418.9 325.27 297.22 254.13 297.22 254.13 418.9 247.85 418.9 247.85 297.22 223.6 297.22 223.6 418.9 217.31 418.9 217.31 297.22 146.18 297.22 146.18 418.9 139.9 418.9 139.9 285.22 331.54 285.22" style="fill: rgb(255, 255, 255); opacity: 0.4; transform-origin: 235.72px 352.06px;" class="animable"></polygon></g><g id="elujla93ce94n"><polygon points="247.76 285.22 247.76 297.22 223.6 297.22 217.31 297.22 146.18 297.22 146.18 418.9 139.9 418.9 139.9 285.22 247.76 285.22" style="fill: rgb(255, 255, 255); opacity: 0.3; transform-origin: 193.83px 352.06px;" class="animable"></polygon></g><rect x="206.16" y="271.53" width="13.57" height="8.16" style="fill: rgb(38, 50, 56); transform-origin: 212.945px 275.61px;" id="elr1yeki492uo" class="animable"></rect><polygon points="219.83 281.83 208.8 281.83 211.9 259.68 222.93 259.68 219.83 281.83" style="fill: rgb(64, 123, 255); transform-origin: 215.865px 270.755px;" id="el0imdua1fbvw" class="animable"></polygon><g id="eljov489gltrg"><polygon points="219.83 281.83 208.8 281.83 211.9 259.68 222.93 259.68 219.83 281.83" style="fill: rgb(255, 255, 255); opacity: 0.3; transform-origin: 215.865px 270.755px;" class="animable"></polygon></g><polygon points="217.19 283.33 206.16 283.33 209.26 261.18 220.28 261.18 217.19 283.33" style="fill: rgb(64, 123, 255); transform-origin: 213.22px 272.255px;" id="elad9us2cdhwq" class="animable"></polygon><g id="el1g28go6f1r2"><polygon points="217.19 283.33 206.16 283.33 209.26 261.18 220.28 261.18 217.19 283.33" style="fill: rgb(255, 255, 255); opacity: 0.6; transform-origin: 213.22px 272.255px;" class="animable"></polygon></g><path d="M223.4,285.22H204.21l2.93-13.69h.73l-1.34,3.27h11l1.34-3.27h2.79S223.71,285.21,223.4,285.22Z" style="fill: rgb(38, 50, 56); transform-origin: 213.821px 278.375px;" id="eldedawyqh4gm" class="animable"></path><polygon points="220.62 271.53 215.03 285.22 200.52 285.22 206.11 271.53 207.87 271.53 206.53 274.8 217.53 274.8 218.87 271.53 220.62 271.53" style="fill: rgb(38, 50, 56); transform-origin: 210.57px 278.375px;" id="eli8zf3ja6kn" class="animable"></polygon><g id="elb3b6zw3vl04"><polygon points="220.62 271.53 215.03 285.22 200.52 285.22 206.11 271.53 207.87 271.53 206.53 274.8 217.53 274.8 218.87 271.53 220.62 271.53" style="fill: rgb(255, 255, 255); opacity: 0.3; transform-origin: 210.57px 278.375px;" class="animable"></polygon></g><path d="M232.18,280.81h23.74a1.84,1.84,0,0,1,1.84,1.84v2.57a0,0,0,0,1,0,0H230.34a0,0,0,0,1,0,0v-2.57A1.84,1.84,0,0,1,232.18,280.81Z" style="fill: rgb(38, 50, 56); transform-origin: 244.05px 283.015px;" id="elrompt9ydiin" class="animable"></path><g id="elcne50xoz0g9"><path d="M232.18,280.81h13.74a1.84,1.84,0,0,1,1.84,1.84v2.57a0,0,0,0,1,0,0H230.34a0,0,0,0,1,0,0v-2.57A1.84,1.84,0,0,1,232.18,280.81Z" style="fill: rgb(255, 255, 255); opacity: 0.3; transform-origin: 239.05px 283.015px;" class="animable"></path></g></g><g id="freepik--character-2--inject-31" class="animable" style="transform-origin: 341.212px 313.22px;"><g id="freepik--group--inject-31" class="animable" style="transform-origin: 311.952px 313.077px;"><rect x="302.45" y="222.88" width="4.13" height="4.13" rx="0.71" style="fill: none; stroke: rgb(38, 50, 56); stroke-miterlimit: 10; stroke-width: 0.5px; transform-origin: 304.515px 224.945px;" id="el336o89qi6pu" class="animable"></rect><path d="M305,267.84l-4.3-6.34s-.36-3.35-.72-3.58-10.4-3-10.4-3-1.31,6.33-.6,7.29,6.82,2.63,6.82,2.63l1.21-.6,3.93,6.46Z" style="fill: rgb(228, 137, 123); transform-origin: 296.885px 262.81px;" id="el04tsbe5pn9m6" class="animable"></path><path d="M326.24,250.22a25.56,25.56,0,0,1,5.22,16.67s-13.92,18.33-20.87,18.33-12.44-16.66-12.44-16.66l6.05-3.67s4.56,7.35,8.44,6.53S326.24,250.22,326.24,250.22Z" style="fill: rgb(64, 123, 255); transform-origin: 314.818px 267.72px;" id="elgnofuflpmyh" class="animable"></path><g id="elbb0bytoad2"><path d="M326.24,250.22a25.56,25.56,0,0,1,5.22,16.67s-13.92,18.33-20.87,18.33-12.44-16.66-12.44-16.66l6.05-3.67s4.56,7.35,8.44,6.53S326.24,250.22,326.24,250.22Z" style="fill: rgb(255, 255, 255); opacity: 0.6; transform-origin: 314.818px 267.72px;" class="animable"></path></g><path d="M284.34,267.84,280,261.5s-.36-3.35-.71-3.58-10.4-3-10.4-3-1.32,6.33-.6,7.29,6.81,2.63,6.81,2.63l1.21-.6,3.93,6.46Z" style="fill: rgb(228, 137, 123); transform-origin: 276.208px 262.81px;" id="elzq261f9ofzg" class="animable"></path><path d="M305.62,234.06a9.77,9.77,0,0,0,.49,1,10.22,10.22,0,0,0,4.4,4.2,9.63,9.63,0,0,0,1.45.6,9.25,9.25,0,0,0,10.6-3.55c3-4.29,2.23-8.53,1.44-15.79a10,10,0,0,0-15.26-7.58C302.17,217,303,227.84,305.62,234.06Z" style="fill: rgb(228, 137, 123); transform-origin: 314.196px 225.883px;" id="el8lrdi0u70g7" class="animable"></path><g id="el3ydmhqzb77i"><path d="M310.51,239.23a9.63,9.63,0,0,0,1.45.6,9.3,9.3,0,0,0,7.94-1,11.29,11.29,0,0,0-1.69-2.23A14.45,14.45,0,0,0,310.51,239.23Z" style="opacity: 0.2; isolation: isolate; transform-origin: 315.205px 238.45px;" class="animable"></path></g><path d="M330.6,245.88c-3,3.81-16,4.34-16,4.34s-5.67-.58-4.81-2.46c3.11-1.06,4.4-2.81,4.72-4.82a9.22,9.22,0,0,0-.28-3.7,18.36,18.36,0,0,0-.61-2l9.42-9.74C319.9,238.86,326.5,242.65,330.6,245.88Z" style="fill: rgb(228, 137, 123); transform-origin: 320.151px 238.86px;" id="el3d3vo3pcsdu" class="animable"></path><path d="M305.44,212.23c2.74-3.61,4.84-2.76,4.84-2.76,1.8-3.06,10.89-2.44,15.24,1.07s5.47,9.53,4.78,14.18c-1,6.76-5.84,13.32-5.84,13.32h0c-5.49,1-9.88-.56-10-3.43s-2.81-5.2-2.81-5.2c-2.71.67-4.86-2.47-4.86-2.47s-2.77-2.89-1.67-6.48S303.13,215.26,305.44,212.23Z" style="fill: rgb(38, 50, 56); transform-origin: 317.524px 222.922px;" id="el6crottxvo1w" class="animable"></path><path d="M312.77,227.61a4.69,4.69,0,0,1-1.86,3.6c-1.36.86-2.67-1-2.82-3.24-.11-1.95.43-4.82,2.06-4.72S313,225.59,312.77,227.61Z" style="fill: rgb(228, 137, 123); transform-origin: 310.437px 227.336px;" id="el79q86lox8bm" class="animable"></path><path d="M310.1,248.55s2.17-9.78,15.31-9.69l3.33,4.85Z" style="fill: rgb(64, 123, 255); transform-origin: 319.42px 243.705px;" id="elau7714ueam7" class="animable"></path><g id="el9ar661q0tu"><path d="M310.1,248.55s2.17-9.78,15.31-9.69l3.33,4.85Z" style="fill: rgb(255, 255, 255); opacity: 0.8; transform-origin: 319.42px 243.705px;" class="animable"></path></g><polygon points="333.2 411.16 325.65 411.3 321.89 393.9 329.43 393.77 333.2 411.16" style="fill: rgb(235, 179, 118); transform-origin: 327.545px 402.535px;" id="el6hwzjqb613" class="animable"></polygon><g id="el3yqhq8eb9f2"><polygon points="329.43 393.77 321.9 393.91 324.05 403.86 331.51 403.36 329.43 393.77" style="opacity: 0.2; isolation: isolate; transform-origin: 326.705px 398.815px;" class="animable"></polygon></g><path d="M309,368.57a237.22,237.22,0,0,0,11,32.46L333.71,400s-5.65-22.06-7.69-42.26c-1.27-12.47-1.16-22.8,2.49-23.59,2.3-.51,7.68-.49,14.57-.33V308.11c-19.34,4-38.57,11.46-40,17.47C301,334,304.57,351.93,309,368.57Z" style="fill: rgb(38, 50, 56); transform-origin: 322.776px 354.57px;" id="elcblbagg1fap" class="animable"></path><polygon points="335.17 400.62 318.78 401.71 316.37 394.62 334.43 393.78 335.17 400.62" style="fill: rgb(64, 123, 255); transform-origin: 325.77px 397.745px;" id="el7nefoh63geb" class="animable"></polygon><g id="el61e7lm7wry5"><polygon points="335.17 400.62 318.78 401.71 316.37 394.62 334.43 393.78 335.17 400.62" style="fill: rgb(255, 255, 255); opacity: 0.2; transform-origin: 325.77px 397.745px;" class="animable"></polygon></g><path d="M324.52,410.92h0c0-.13-.13-2.26-.91-2.94a1.1,1.1,0,0,0-.84-.2.72.72,0,0,0-.64.57,2.66,2.66,0,0,0,.74,1.72,3.13,3.13,0,0,0-2.09-.38.7.7,0,0,0-.38.52,1,1,0,0,0,.28,1,2,2,0,0,0,1.43.28,9.42,9.42,0,0,0,2-.39h.06s0,0,0-.05.18,0,.19-.08l.16,0Zm-2.08-2.5c0-.1.07-.23.32-.28h.08a.5.5,0,0,1,.39.14,3.83,3.83,0,0,1,.64,2.3l-.16-.08A3.58,3.58,0,0,1,322.44,408.42Zm-1.54,2.49a.67.67,0,0,1-.16-.62.33.33,0,0,1,.18-.26c.48-.22,1.77.33,2.68.83C322.27,411.21,321.28,411.23,320.9,410.91Z" style="fill: rgb(64, 123, 255); transform-origin: 322.441px 409.643px;" id="elnxwytv56owa" class="animable"></path><path d="M324.7,410l8.45-.52a.54.54,0,0,1,.59.47h0l.83,6.66a1.35,1.35,0,0,1-1.24,1.42c-2.95.13-4.36,0-8.08.25a70,70,0,0,1-9.92.32c-3.15-.31-2.77-3.41-1.41-3.56,3.23-.37,7.5-2.73,9.51-4.53A2.14,2.14,0,0,1,324.7,410Z" style="fill: rgb(38, 50, 56); transform-origin: 323.742px 414.065px;" id="eloe8ez3mo43" class="animable"></path><g id="elzuodm4jmkh"><path d="M309,368.57c5.14-3.25,11.15-7.08,17.06-10.86-1.27-12.47-1.16-22.8,2.49-23.59,2.3-.51,7.68-.49,14.57-.33V308.11c-19.34,4-38.57,11.46-40,17.47C301,334,304.57,351.93,309,368.57Z" style="opacity: 0.2; isolation: isolate; transform-origin: 322.806px 338.34px;" class="animable"></path></g><polygon points="289.09 411.16 281.55 411.3 277.79 393.9 285.32 393.77 289.09 411.16" style="fill: rgb(235, 179, 118); transform-origin: 283.44px 402.535px;" id="ele8n1zf3akut" class="animable"></polygon><g id="eliqm2iwpf8u"><polygon points="285.32 393.77 277.79 393.91 279.94 403.86 287.41 403.36 285.32 393.77" style="opacity: 0.2; isolation: isolate; transform-origin: 282.6px 398.815px;" class="animable"></polygon></g><path d="M316.49,305.59l.12-10.76,40.58-7.71s10.37,27.77,4.06,40.28c-5.78,11.48-67.36,4.64-76.84,6.71S289.6,400,289.6,400l-13.76,1s-21.27-57.39-16.9-75.44C260.85,317.7,293.31,307.27,316.49,305.59Z" style="fill: rgb(38, 50, 56); transform-origin: 310.817px 344.06px;" id="elpwkq8owtmsk" class="animable"></path><polygon points="291.07 400.62 274.67 401.71 272.26 394.62 290.32 393.78 291.07 400.62" style="fill: rgb(64, 123, 255); transform-origin: 281.665px 397.745px;" id="el0165rcm8gbmo" class="animable"></polygon><g id="elizrfbn3ooe9"><polygon points="291.07 400.62 274.67 401.71 272.26 394.62 290.32 393.78 291.07 400.62" style="fill: rgb(255, 255, 255); opacity: 0.2; transform-origin: 281.665px 397.745px;" class="animable"></polygon></g><path d="M280.41,410.92h0c0-.13-.12-2.26-.91-2.94a1.08,1.08,0,0,0-.84-.2.73.73,0,0,0-.64.57,2.68,2.68,0,0,0,.75,1.72,3.15,3.15,0,0,0-2.09-.38.66.66,0,0,0-.38.52,1,1,0,0,0,.27,1,2,2,0,0,0,1.44.28,9.45,9.45,0,0,0,2-.39H280s0,0,0-.05.18,0,.19-.08l.15,0Zm-2.07-2.5c0-.1.06-.23.31-.28h.09a.49.49,0,0,1,.38.14,3.76,3.76,0,0,1,.64,2.3l-.16-.08A3.5,3.5,0,0,1,278.34,408.42Zm-1.54,2.49a.68.68,0,0,1-.17-.62.34.34,0,0,1,.19-.26c.48-.22,1.77.33,2.68.83C278.17,411.21,277.18,411.23,276.8,410.91Z" style="fill: rgb(64, 123, 255); transform-origin: 278.335px 409.643px;" id="elay837hk1wuc" class="animable"></path><path d="M280.6,410l8.44-.52a.54.54,0,0,1,.59.47h0l.83,6.66a1.34,1.34,0,0,1-1.23,1.42c-3,.13-4.37,0-8.08.25a70.19,70.19,0,0,1-9.93.32c-3.15-.31-2.76-3.41-1.4-3.56,3.22-.37,7.49-2.73,9.51-4.53A2.12,2.12,0,0,1,280.6,410Z" style="fill: rgb(38, 50, 56); transform-origin: 279.635px 414.065px;" id="ely5un5hccikt" class="animable"></path><polygon points="358.7 297.79 339.55 300.19 338.93 297.49 358.11 294.83 358.7 297.79" id="el535382h3fh8" class="animable" style="transform-origin: 348.815px 297.51px;"></polygon><polygon points="337.34 297.51 337.57 300.19 319.88 302.5 319.88 299.86 337.34 297.51" id="elwr8ldideg1d" class="animable" style="transform-origin: 328.725px 300.005px;"></polygon><polygon points="318.78 300.01 318.78 302.5 316.21 302.83 316.21 300.42 318.78 300.01" id="elyr2h63r5d8f" class="animable" style="transform-origin: 317.495px 301.42px;"></polygon><polygon points="360 297.22 359.35 294.83 360 294.83 360.77 296.69 360 297.22" id="ele8j9he0sd7g" class="animable" style="transform-origin: 360.06px 296.025px;"></polygon><path d="M305.6,250.22s11.26-8.55,23.12-8.41,37.56,41.31,36.82,76l-51.71,1.08V288.69A135.58,135.58,0,0,0,305.6,250.22Z" style="fill: rgb(64, 123, 255); transform-origin: 335.578px 280.349px;" id="el3zspaxnspyl" class="animable"></path><g id="el3e2kwti3u0x"><path d="M305.6,250.22s11.26-8.55,23.12-8.41,37.56,41.31,36.82,76l-51.71,1.08V288.69A135.58,135.58,0,0,0,305.6,250.22Z" style="fill: rgb(255, 255, 255); opacity: 0.9; transform-origin: 335.578px 280.349px;" class="animable"></path></g><path d="M305.6,250.22a25.62,25.62,0,0,1,5.22,16.67S296.89,285.22,290,285.22s-12.44-16.66-12.44-16.66l6.05-3.67s4.55,7.35,8.43,6.53S305.6,250.22,305.6,250.22Z" style="fill: rgb(64, 123, 255); transform-origin: 294.203px 267.72px;" id="ela3r3rdz0s9" class="animable"></path><g id="ell0ghw7pn3c"><path d="M305.6,250.22a25.62,25.62,0,0,1,5.22,16.67S296.89,285.22,290,285.22s-12.44-16.66-12.44-16.66l6.05-3.67s4.55,7.35,8.43,6.53S305.6,250.22,305.6,250.22Z" style="fill: rgb(255, 255, 255); opacity: 0.8; transform-origin: 294.203px 267.72px;" class="animable"></path></g><g id="elujetg7iim0l"><rect x="290.68" y="251.05" width="0.43" height="1.55" style="fill: rgb(38, 50, 56); transform-origin: 290.895px 251.825px; transform: rotate(-19.07deg);" class="animable"></rect></g><path d="M294.88,252.15l2.7,7.8a1.19,1.19,0,0,1-.72,1.5l-5.11,1.76a1.18,1.18,0,0,1-1.5-.72l-2.7-7.81a1.17,1.17,0,0,1,.74-1.49l5.1-1.77A1.17,1.17,0,0,1,294.88,252.15Z" style="fill: rgb(64, 123, 255); transform-origin: 292.565px 257.316px;" id="elamhswqbt8tg" class="animable"></path><g id="eltkr5tz3fofr"><path d="M294.88,252.15l2.7,7.8a1.19,1.19,0,0,1-.72,1.5l-3.36,1.16a1.18,1.18,0,0,1-1.5-.73l-2.69-7.8a1.17,1.17,0,0,1,.72-1.5l3.36-1.16A1.17,1.17,0,0,1,294.88,252.15Z" style="fill: rgb(255, 255, 255); opacity: 0.2; transform-origin: 293.442px 257.015px;" class="animable"></path></g><g id="elcwe2yrgvlsc"><rect x="290.55" y="253.93" width="4.79" height="3.16" rx="0.26" style="fill: rgb(38, 50, 56); transform-origin: 292.945px 255.51px; transform: rotate(-19.07deg);" class="animable"></rect></g><g id="el1eev6uewlzm"><rect x="292.51" y="259.07" width="1.3" height="1.3" rx="0.26" style="fill: rgb(64, 123, 255); transform-origin: 293.16px 259.72px; transform: rotate(-19.07deg);" class="animable"></rect></g><g id="elcosr4efk7ug"><rect x="294.94" y="258.23" width="1.3" height="1.3" rx="0.26" style="fill: rgb(64, 123, 255); transform-origin: 295.59px 258.88px; transform: rotate(-19.07deg);" class="animable"></rect></g></g><rect x="294.31" y="333.33" width="109.97" height="85.57" style="fill: rgb(64, 123, 255); transform-origin: 349.295px 376.115px;" id="el08qgmrzkdiqo" class="animable"></rect><g id="eltabefm8oa6r"><rect x="294.31" y="333.33" width="59.33" height="85.57" style="fill: rgb(255, 255, 255); opacity: 0.2; transform-origin: 323.975px 376.115px;" class="animable"></rect></g><path d="M415.25,240.84H363.64a8.83,8.83,0,0,0-8.63,7l-20.19,95h69.65l19.41-91.32A8.83,8.83,0,0,0,415.25,240.84Z" style="fill: rgb(64, 123, 255); transform-origin: 379.448px 291.84px;" id="elgh50qjvebrp" class="animable"></path><g id="el8uj2bpgrufm"><path d="M352.86,342.82h-18l20.19-95a8.83,8.83,0,0,1,8.63-7h0a8.83,8.83,0,0,1,8.63,10.66Z" style="fill: rgb(255, 255, 255); opacity: 0.2; transform-origin: 353.681px 291.82px;" class="animable"></path></g><path d="M329.73,305.1H285.35a7.84,7.84,0,0,0-7.84,7.84v106h15.68v-.2H321.9v.2h15.67v-106A7.84,7.84,0,0,0,329.73,305.1Z" style="fill: rgb(64, 123, 255); transform-origin: 307.54px 362.02px;" id="eli2sj8o76m" class="animable"></path><g id="elns9gfwe82uo"><path d="M329.73,305.1H285.35a7.84,7.84,0,0,0-7.84,7.84v106h15.68v-.2H321.9v.2h15.67v-106A7.84,7.84,0,0,0,329.73,305.1Z" style="fill: rgb(255, 255, 255); opacity: 0.2; transform-origin: 307.54px 362.02px;" class="animable"></path></g><path d="M329.73,305.1h0a7.83,7.83,0,0,0-7.83,7.84v106h15.67v-106A7.84,7.84,0,0,0,329.73,305.1Z" style="fill: rgb(64, 123, 255); transform-origin: 329.735px 362.02px;" id="elf4pzvy98yh" class="animable"></path></g><g id="freepik--Bubble--inject-31" class="animable" style="transform-origin: 238.18px 149.85px;"><line x1="238.18" y1="143.8" x2="238.82" y2="145.15" style="fill: none; stroke: rgb(64, 123, 255); stroke-miterlimit: 10; transform-origin: 238.5px 144.475px;" id="elyikly3ek5qk" class="animable"></line><line x1="240.13" y1="147.88" x2="283.94" y2="239.31" style="fill: none; stroke: rgb(64, 123, 255); stroke-miterlimit: 10; stroke-dasharray: 3.02627, 3.02627; transform-origin: 262.035px 193.595px;" id="eljkhgze8j6qs" class="animable"></line><line x1="284.59" y1="240.67" x2="285.24" y2="242.03" style="fill: none; stroke: rgb(64, 123, 255); stroke-miterlimit: 10; transform-origin: 284.915px 241.35px;" id="el59i7h6h4sdo" class="animable"></line><path d="M287.09,242a1.85,1.85,0,1,1-1.85-1.85A1.85,1.85,0,0,1,287.09,242Z" style="fill: rgb(64, 123, 255); transform-origin: 285.24px 242px;" id="el8j4wgpwpuqb" class="animable"></path><g id="elfeqs6bxqiyt"><circle cx="238.18" cy="143.8" r="62.19" style="fill: rgb(64, 123, 255); transform-origin: 238.18px 143.8px; transform: rotate(-45deg);" class="animable"></circle></g><g id="elj61wftsvqdm"><circle cx="238.18" cy="143.8" r="58.44" style="fill: rgb(255, 255, 255); opacity: 0.7; transform-origin: 238.18px 143.8px; transform: rotate(-84.35deg);" class="animable"></circle></g><path d="M216.46,117.34s31.23,47.39,0,47.39S216.46,117.34,216.46,117.34Z" style="fill: rgb(64, 123, 255); transform-origin: 216.46px 141.035px;" id="ele4fgoqnje3j" class="animable"></path><g id="elwpkiagrv5u"><path d="M208.87,140.27a25.22,25.22,0,0,1,1.74-3.94" style="fill: none; stroke: rgb(255, 255, 255); stroke-linecap: round; stroke-linejoin: round; stroke-width: 2px; opacity: 0.7; transform-origin: 209.74px 138.3px;" class="animable"></path></g><g id="elsbpnspm1v69"><path d="M216.46,161.51c-3.65-.37-8-1.43-9.55-5.17-1.44-3.55-.28-8,.64-11.56" style="fill: none; stroke: rgb(255, 255, 255); stroke-linecap: round; stroke-linejoin: round; stroke-width: 2px; opacity: 0.7; transform-origin: 211.346px 153.145px;" class="animable"></path></g><path d="M238.17,85.36V142.6l-.07,0-15.92,3.83,15.92,3.83.07,0v52a58.44,58.44,0,1,0,0-116.88Z" style="fill: rgb(38, 50, 56); transform-origin: 259.395px 143.81px;" id="el1zzso8wam78" class="animable"></path><polygon points="277.92 127.8 270.09 127.8 266.17 134.59 270.09 141.38 277.92 141.38 281.84 134.59 277.92 127.8" style="fill: rgb(64, 123, 255); transform-origin: 274.005px 134.59px;" id="ell86a2uqm7w" class="animable"></polygon><g id="elicf0dcxn2u"><polygon points="277.92 127.8 270.09 127.8 266.17 134.59 270.09 141.38 277.92 141.38 281.84 134.59 277.92 127.8" style="fill: rgb(255, 255, 255); opacity: 0.7; transform-origin: 274.005px 134.59px;" class="animable"></polygon></g><g id="elegf7elhowbe"><polygon points="266.17 134.59 274 134.59 277.92 127.8 270.09 127.8 266.17 134.59" style="fill: rgb(255, 255, 255); opacity: 0.4; transform-origin: 272.045px 131.195px;" class="animable"></polygon></g><polygon points="273.8 162.05 268.86 160.47 265.02 163.97 266.13 169.04 271.07 170.61 274.91 167.12 273.8 162.05" style="fill: rgb(64, 123, 255); transform-origin: 269.965px 165.54px;" id="elpd0in4cy4y" class="animable"></polygon><g id="eljpdcs4w8aha"><polygon points="273.8 162.05 268.86 160.47 265.02 163.97 266.13 169.04 271.07 170.61 274.91 167.12 273.8 162.05" style="fill: rgb(255, 255, 255); opacity: 0.7; transform-origin: 269.965px 165.54px;" class="animable"></polygon></g><g id="el3796b2plemh"><polygon points="265.02 163.97 269.96 165.54 273.8 162.05 268.86 160.47 265.02 163.97" style="fill: rgb(255, 255, 255); opacity: 0.4; transform-origin: 269.41px 163.005px;" class="animable"></polygon></g><polygon points="274.65 111.79 272.54 111.12 270.91 112.61 271.38 114.77 273.49 115.44 275.12 113.95 274.65 111.79" style="fill: rgb(64, 123, 255); transform-origin: 273.015px 113.28px;" id="elkhnv2kwc3e" class="animable"></polygon><g id="elbmidbcs9zyv"><polygon points="274.65 111.79 272.54 111.12 270.91 112.61 271.38 114.77 273.49 115.44 275.12 113.95 274.65 111.79" style="fill: rgb(255, 255, 255); opacity: 0.7; transform-origin: 273.015px 113.28px;" class="animable"></polygon></g><g id="el7n5d6niodvn"><polygon points="270.91 112.61 273.01 113.28 274.65 111.79 272.54 111.12 270.91 112.61" style="fill: rgb(255, 255, 255); opacity: 0.4; transform-origin: 272.78px 112.2px;" class="animable"></polygon></g><polygon points="255.31 160.39 253.16 156.85 249.03 156.93 247.03 160.56 249.17 164.1 253.31 164.01 255.31 160.39" style="fill: rgb(64, 123, 255); transform-origin: 251.17px 160.475px;" id="ela43qg4v4i26" class="animable"></polygon><g id="elyswbi20h80g"><polygon points="255.31 160.39 253.16 156.85 249.03 156.93 247.03 160.56 249.17 164.1 253.31 164.01 255.31 160.39" style="fill: rgb(255, 255, 255); opacity: 0.7; transform-origin: 251.17px 160.475px;" class="animable"></polygon></g><g id="el0978sdhr008i"><polygon points="249.03 156.93 251.17 160.47 255.31 160.39 253.16 156.85 249.03 156.93" style="fill: rgb(255, 255, 255); opacity: 0.4; transform-origin: 252.17px 158.66px;" class="animable"></polygon></g><polygon points="288.38 147.36 286.24 143.82 282.1 143.9 280.11 147.53 282.25 151.07 286.38 150.98 288.38 147.36" style="fill: rgb(64, 123, 255); transform-origin: 284.245px 147.445px;" id="elv7vy1sncoxr" class="animable"></polygon><g id="elnccc1qe42u"><polygon points="288.38 147.36 286.24 143.82 282.1 143.9 280.11 147.53 282.25 151.07 286.38 150.98 288.38 147.36" style="fill: rgb(255, 255, 255); opacity: 0.7; transform-origin: 284.245px 147.445px;" class="animable"></polygon></g><g id="elu5qq726bj7a"><polygon points="282.1 143.9 284.24 147.44 288.38 147.36 286.24 143.82 282.1 143.9" style="fill: rgb(255, 255, 255); opacity: 0.4; transform-origin: 285.24px 145.63px;" class="animable"></polygon></g><polygon points="253.59 101.87 249.52 102.58 248.09 106.46 250.74 109.64 254.81 108.93 256.24 105.05 253.59 101.87" style="fill: rgb(64, 123, 255); transform-origin: 252.165px 105.755px;" id="elynpy4t4dvne" class="animable"></polygon><g id="elw7p5x2xzaw"><polygon points="253.59 101.87 249.52 102.58 248.09 106.46 250.74 109.64 254.81 108.93 256.24 105.05 253.59 101.87" style="fill: rgb(255, 255, 255); opacity: 0.7; transform-origin: 252.165px 105.755px;" class="animable"></polygon></g><g id="el7l9zhjru0pa"><polygon points="248.09 106.46 252.17 105.75 253.59 101.87 249.52 102.58 248.09 106.46" style="fill: rgb(255, 255, 255); opacity: 0.4; transform-origin: 250.84px 104.165px;" class="animable"></polygon></g><polygon points="251.31 186.52 253.59 187.78 255.81 186.43 255.76 183.84 253.48 182.58 251.26 183.93 251.31 186.52" style="fill: rgb(64, 123, 255); transform-origin: 253.535px 185.18px;" id="ellg8f93rhtck" class="animable"></polygon><g id="eluonflc97au"><polygon points="251.31 186.52 253.59 187.78 255.81 186.43 255.76 183.84 253.48 182.58 251.26 183.93 251.31 186.52" style="fill: rgb(255, 255, 255); opacity: 0.7; transform-origin: 253.535px 185.18px;" class="animable"></polygon></g><g id="elivy821yfjf"><polygon points="255.81 186.43 253.53 185.18 251.31 186.52 253.59 187.78 255.81 186.43" style="opacity: 0.2; isolation: isolate; transform-origin: 253.56px 186.48px;" class="animable"></polygon></g><polygon points="253.53 149.28 259.96 151.41 265.02 146.91 263.65 140.28 257.22 138.15 252.17 142.65 253.53 149.28" style="fill: rgb(64, 123, 255); transform-origin: 258.595px 144.78px;" id="el0hk417rj5isn" class="animable"></polygon><g id="elft19tbyvfea"><polygon points="253.53 149.28 259.96 151.41 265.02 146.91 263.65 140.28 257.22 138.15 252.17 142.65 253.53 149.28" style="fill: rgb(255, 255, 255); opacity: 0.7; transform-origin: 258.595px 144.78px;" class="animable"></polygon></g><g id="eluquuuuseei"><polygon points="265.02 146.91 258.59 144.78 253.53 149.28 259.96 151.41 265.02 146.91" style="opacity: 0.2; isolation: isolate; transform-origin: 259.275px 148.095px;" class="animable"></polygon></g><polygon points="245.06 124.42 247.34 129.09 252.53 129.44 255.43 125.13 253.14 120.46 247.96 120.11 245.06 124.42" style="fill: rgb(64, 123, 255); transform-origin: 250.245px 124.775px;" id="elq6y8r1vpxn" class="animable"></polygon><g id="els93z2j9mmrh"><polygon points="245.06 124.42 247.34 129.09 252.53 129.44 255.43 125.13 253.14 120.46 247.96 120.11 245.06 124.42" style="fill: rgb(255, 255, 255); opacity: 0.7; transform-origin: 250.245px 124.775px;" class="animable"></polygon></g><g id="ell8m5u8bysak"><polygon points="252.53 129.44 250.24 124.77 245.06 124.42 247.34 129.09 252.53 129.44" style="opacity: 0.2; isolation: isolate; transform-origin: 248.795px 126.93px;" class="animable"></polygon></g></g><defs>     <filter id="active" height="200%">         <feMorphology in="SourceAlpha" result="DILATED" operator="dilate" radius="2"></feMorphology>                <feFlood flood-color="#32DFEC" flood-opacity="1" result="PINK"></feFlood>        <feComposite in="PINK" in2="DILATED" operator="in" result="OUTLINE"></feComposite>        <feMerge>            <feMergeNode in="OUTLINE"></feMergeNode>            <feMergeNode in="SourceGraphic"></feMergeNode>        </feMerge>    </filter>    <filter id="hover" height="200%">        <feMorphology in="SourceAlpha" result="DILATED" operator="dilate" radius="2"></feMorphology>                <feFlood flood-color="#ff0000" flood-opacity="0.5" result="PINK"></feFlood>        <feComposite in="PINK" in2="DILATED" operator="in" result="OUTLINE"></feComposite>        <feMerge>            <feMergeNode in="OUTLINE"></feMergeNode>            <feMergeNode in="SourceGraphic"></feMergeNode>        </feMerge>            <feColorMatrix type="matrix" values="0   0   0   0   0                0   1   0   0   0                0   0   0   0   0                0   0   0   1   0 "></feColorMatrix>    </filter></defs></svg>