<svg class="animated" id="freepik_stories-hospital-building" xmlns="http://www.w3.org/2000/svg" viewBox="0 0 500 500" version="1.1" xmlns:xlink="http://www.w3.org/1999/xlink" xmlns:svgjs="http://svgjs.com/svgjs"><style>svg#freepik_stories-hospital-building:not(.animated) .animable {opacity: 0;}svg#freepik_stories-hospital-building.animated #freepik--hospital-building--inject-67 {animation: 1.5s Infinite  linear floating;animation-delay: 0s;}            @keyframes floating {                0% {                    opacity: 1;                    transform: translateY(0px);                }                50% {                    transform: translateY(-10px);                }                100% {                    opacity: 1;                    transform: translateY(0px);                }            }        </style><g id="freepik--background-complete--inject-67" class="animable" style="transform-origin: 250px 228.23px;"><rect y="382.4" width="500" height="0.25" style="fill: rgb(235, 235, 235); transform-origin: 250px 382.525px;" id="eluj4jzoh5w0b" class="animable"></rect><rect x="416.78" y="398.49" width="33.12" height="0.25" style="fill: rgb(235, 235, 235); transform-origin: 433.34px 398.615px;" id="el2d6kcepxb2h" class="animable"></rect><rect x="322.53" y="401.21" width="8.69" height="0.25" style="fill: rgb(235, 235, 235); transform-origin: 326.875px 401.335px;" id="elpvvxnkkdbm" class="animable"></rect><rect x="396.59" y="389.21" width="19.19" height="0.25" style="fill: rgb(235, 235, 235); transform-origin: 406.185px 389.335px;" id="elpzg26i66fk" class="animable"></rect><rect x="52.46" y="390.89" width="43.19" height="0.25" style="fill: rgb(235, 235, 235); transform-origin: 74.055px 391.015px;" id="elw01yd8yvtm" class="animable"></rect><rect x="104.56" y="390.89" width="6.33" height="0.25" style="fill: rgb(235, 235, 235); transform-origin: 107.725px 391.015px;" id="ele8r8rchz4k9" class="animable"></rect><rect x="131.47" y="395.11" width="93.68" height="0.25" style="fill: rgb(235, 235, 235); transform-origin: 178.31px 395.235px;" id="el5biyhjhy3pl" class="animable"></rect><path d="M237,337.8H43.91a5.71,5.71,0,0,1-5.7-5.71V60.66A5.71,5.71,0,0,1,43.91,55H237a5.71,5.71,0,0,1,5.71,5.71V332.09A5.71,5.71,0,0,1,237,337.8ZM43.91,55.2a5.46,5.46,0,0,0-5.45,5.46V332.09a5.46,5.46,0,0,0,5.45,5.46H237a5.47,5.47,0,0,0,5.46-5.46V60.66A5.47,5.47,0,0,0,237,55.2Z" style="fill: rgb(235, 235, 235); transform-origin: 140.46px 196.4px;" id="el0g6ob7soyv8b" class="animable"></path><path d="M453.31,337.8H260.21a5.72,5.72,0,0,1-5.71-5.71V60.66A5.72,5.72,0,0,1,260.21,55h193.1A5.71,5.71,0,0,1,459,60.66V332.09A5.71,5.71,0,0,1,453.31,337.8ZM260.21,55.2a5.47,5.47,0,0,0-5.46,5.46V332.09a5.47,5.47,0,0,0,5.46,5.46h193.1a5.47,5.47,0,0,0,5.46-5.46V60.66a5.47,5.47,0,0,0-5.46-5.46Z" style="fill: rgb(235, 235, 235); transform-origin: 356.75px 196.4px;" id="elerbcarvkaer" class="animable"></path><polygon points="443.11 381.44 443.11 282.1 420.35 282.1 420.35 236.37 417.13 236.37 417.13 262.58 408.38 262.58 408.38 255.33 392.63 255.33 392.63 230.23 389.71 230.23 389.71 199.56 387.37 199.56 387.37 229.68 381.83 229.68 381.83 274.29 371.32 274.29 371.32 229.68 352.36 229.68 352.36 267.41 332.44 267.41 332.44 221.67 329.24 221.67 329.24 247.89 320.48 247.89 320.48 240.64 304.73 240.64 304.73 215.54 301.81 215.54 301.81 184.86 299.47 184.86 299.47 214.98 293.93 214.98 293.93 259.6 283.42 259.6 283.42 214.98 264.46 214.98 264.46 258.14 251.67 258.14 251.67 233.04 248.75 233.04 248.75 202.37 246.41 202.37 246.41 232.49 240.87 232.49 240.87 277.1 230.37 277.1 230.37 232.49 211.4 232.49 211.4 277.1 202.06 277.1 202.06 282.1 185.7 282.1 185.7 236.37 182.49 236.37 182.49 262.58 173.74 262.58 173.74 255.33 157.98 255.33 157.98 230.23 155.07 230.23 155.07 199.56 152.73 199.56 152.73 229.68 147.64 229.68 147.64 227.16 128.68 227.16 128.68 229.68 118.17 229.68 118.17 227.16 112.63 227.16 112.63 197.05 110.29 197.05 110.29 227.72 107.38 227.72 107.38 252.82 91.62 252.82 91.62 260.07 82.86 260.07 82.86 233.86 79.66 233.86 79.66 279.59 56.9 279.59 56.9 381.44 443.11 381.44" style="fill: rgb(245, 245, 245); transform-origin: 250.005px 283.15px;" id="eliamsbpgmbgm" class="animable"></polygon><g id="eld45bhtvc7g8"><circle cx="372.26" cy="122.95" r="27.79" style="fill: rgb(250, 250, 250); transform-origin: 372.26px 122.95px; transform: rotate(-22.5deg);" class="animable"></circle></g><path d="M357.84,122.63a4.8,4.8,0,0,0-6.21-4.62,10.45,10.45,0,0,0,.11-1.49,10.22,10.22,0,0,0-10.23-10.22,10.63,10.63,0,0,0-1.89.17A8.94,8.94,0,0,0,323,111h-.14a8.24,8.24,0,1,0,0,16.48h30.25A4.84,4.84,0,0,0,357.84,122.63Z" style="fill: rgb(240, 240, 240); transform-origin: 336.226px 114.793px;" id="elhd4c31j8zk8" class="animable"></path><path d="M61.34,174a4.83,4.83,0,0,1,6.21-4.63A10.28,10.28,0,0,1,77.68,157.7a10.6,10.6,0,0,1,1.88.18,8.94,8.94,0,0,1,16.58,4.52h.15a8.24,8.24,0,0,1,0,16.48H66A4.82,4.82,0,0,1,61.34,174Z" style="fill: rgb(240, 240, 240); transform-origin: 82.9348px 166.231px;" id="elxdapq9trcd" class="animable"></path><path d="M177.89,118.42a7.64,7.64,0,0,0-7.64-7.64,7.53,7.53,0,0,0-2.19.32,16.56,16.56,0,0,0,.17-2.35,16.17,16.17,0,0,0-19.17-15.9A14.14,14.14,0,0,0,122.83,100h-.23a13,13,0,1,0,0,26.07h47.86A7.63,7.63,0,0,0,177.89,118.42Z" style="fill: rgb(240, 240, 240); transform-origin: 143.728px 106.056px;" id="el7flt3e5iozq" class="animable"></path><path d="M288.62,158.35a9.19,9.19,0,0,0-11.84-8.81,18.72,18.72,0,0,0,.21-2.82,19.45,19.45,0,0,0-23.07-19.14,17,17,0,0,0-31.56,8.6h-.29a15.69,15.69,0,0,0,0,31.38h57.62v0A9.18,9.18,0,0,0,288.62,158.35Z" style="fill: rgb(240, 240, 240); transform-origin: 247.5px 143.457px;" id="elbd89w1m06xp" class="animable"></path><path d="M418.45,137.1a3,3,0,0,0-3.86-2.87,7,7,0,0,0,.07-.92A6.36,6.36,0,0,0,408.3,127a6.56,6.56,0,0,0-1.18.11,5.55,5.55,0,0,0-10.3,2.81h-.09a5.13,5.13,0,1,0,0,10.25h18.8A3,3,0,0,0,418.45,137.1Z" style="fill: rgb(240, 240, 240); transform-origin: 404.912px 132.303px;" id="el8lic36cmtcr" class="animable"></path><path d="M426.65,223.35a3,3,0,0,0-3-3,3.08,3.08,0,0,0-.86.12,5.53,5.53,0,0,0,.07-.92,6.36,6.36,0,0,0-6.36-6.36,6.45,6.45,0,0,0-1.17.11A5.56,5.56,0,0,0,405,216.11h-.09a5.12,5.12,0,0,0,0,10.24h18.81A3,3,0,0,0,426.65,223.35Z" style="fill: rgb(240, 240, 240); transform-origin: 413.22px 218.473px;" id="elen9iis5re5v" class="animable"></path><path d="M142.54,241.47a3,3,0,0,0-3.86-2.88,7,7,0,0,0,.06-.92,6.36,6.36,0,0,0-6.36-6.36,6.45,6.45,0,0,0-1.17.11,5.55,5.55,0,0,0-10.3,2.81h-.1a5.13,5.13,0,0,0,0,10.25h18.81A3,3,0,0,0,142.54,241.47Z" style="fill: rgb(240, 240, 240); transform-origin: 129.223px 236.61px;" id="eltya7uy47qc" class="animable"></path></g><g id="freepik--Shadow--inject-67" class="animable" style="transform-origin: 250px 416.24px;"><ellipse id="freepik--path--inject-67" cx="250" cy="416.24" rx="193.89" ry="11.32" style="fill: rgb(245, 245, 245); transform-origin: 250px 416.24px;" class="animable"></ellipse></g><g id="freepik--Trees--inject-67" class="animable" style="transform-origin: 249.941px 354.295px;"><path d="M411.28,398.94c-.12-1-.07-2.43,1.16-2.83a3.92,3.92,0,0,0,3-3.78c-.07-1.68,1.95-3.31,3.45-1.74s1.31-1.2,3.32-1.88,3.72,1,3.17,2.46,1.44,2.43,3.81,1.16,5,1,4.49,2.85-.09,2,1.42,1.41a2.76,2.76,0,0,1,3.44,2.35Z" style="fill: rgb(64, 123, 255); transform-origin: 424.888px 393.747px;" id="eltdzeywcpnc" class="animable"></path><path d="M439.48,338.41a3.81,3.81,0,0,0,.13-.81c.1-1.7,1.72-1.43,3.09-1.66,1.08-.18-1.77-2.9.4-3.78a1.89,1.89,0,0,0,1-.73,1.23,1.23,0,0,0-.47-1.5,3,3,0,0,0-1.65-.42c-.36-.43-.07-1.07.27-1.51s.77-.94.64-1.49c-.2-.81-1.34-.84-2.17-.68a6.32,6.32,0,0,1-.45-1.68c-.14-.56-.59-1.15-1.17-1.08s-.87.68-1.41.81-1.15-.41-1.64-.82-1.33-.66-1.67-.12c-.2.32-.08.77-.28,1.09-.36.55-1.22.21-1.75-.18s-1.38-.75-1.75-.2a2.09,2.09,0,0,0-.21.56c-.25.73-1,1.09-1.64,1.55s-1.1,1.39-.58,2c.26.28.7.39.83.75s-.3.85-.66,1.15c-.6.51-.71,2,.09,2.46.33.17.82.22.9.59s-.26.59-.48.84a1.58,1.58,0,0,0,.48,2.35c.19.09.43.16.5.36a.75.75,0,0,1-.05.44,2.46,2.46,0,0,0-.08.85.37.37,0,0,0,.11.27.35.35,0,0,0,.25.07c1.14,0,1.7-.35,2.4.64a.72.72,0,0,0,.23.26.71.71,0,0,0,.32.07c.79.07,1.3-.42,2-.51,1-.13,1.21.38,2.09.8C438.55,339.76,439.22,339.36,439.48,338.41Z" style="fill: rgb(64, 123, 255); transform-origin: 436.026px 331.036px;" id="el78zh4sofr2e" class="animable"></path><path d="M426.3,337a4.74,4.74,0,0,0,.12-.82c.1-1.69,1.72-1.43,3.1-1.66,1.07-.18-1.78-2.9.39-3.77a1.92,1.92,0,0,0,1-.73,1.24,1.24,0,0,0-.47-1.51,2.92,2.92,0,0,0-1.65-.41c-.35-.43-.07-1.08.28-1.52s.76-.94.63-1.48c-.2-.82-1.34-.85-2.17-.69a5.79,5.79,0,0,1-.44-1.67c-.15-.57-.6-1.16-1.18-1.09s-.87.68-1.4.81-1.16-.4-1.64-.81-1.34-.67-1.67-.13c-.2.33-.08.78-.29,1.1-.36.55-1.22.21-1.75-.19s-1.38-.74-1.75-.2a2.27,2.27,0,0,0-.2.57c-.26.72-1,1.08-1.65,1.55s-1.09,1.39-.58,2c.26.28.71.39.83.75s-.29.84-.65,1.15c-.6.51-.71,2,.08,2.45.33.18.82.23.9.6s-.26.58-.48.83a1.58,1.58,0,0,0,.48,2.35c.19.09.43.17.5.37a.76.76,0,0,1-.05.44,2.41,2.41,0,0,0-.07.85.38.38,0,0,0,.1.26.44.44,0,0,0,.25.08c1.15.05,1.7-.36,2.4.64a.82.82,0,0,0,.24.25.65.65,0,0,0,.31.08c.79.06,1.3-.43,2-.52,1-.13,1.21.39,2.09.8C425.37,338.33,426,337.93,426.3,337Z" style="fill: rgb(64, 123, 255); transform-origin: 422.841px 329.614px;" id="elrwbpoh4dqn" class="animable"></path><path d="M425,328.59a3.81,3.81,0,0,0,.13-.82c.1-1.69,1.72-1.42,3.1-1.65,1.07-.18-1.78-2.9.39-3.78a1.9,1.9,0,0,0,1.05-.73,1.24,1.24,0,0,0-.47-1.51,2.94,2.94,0,0,0-1.65-.41c-.35-.43-.07-1.08.28-1.52s.76-.94.63-1.48c-.2-.82-1.34-.85-2.17-.69a5.79,5.79,0,0,1-.44-1.67c-.15-.56-.6-1.15-1.18-1.08s-.87.68-1.41.8-1.15-.4-1.64-.81-1.33-.67-1.66-.13c-.2.33-.08.78-.29,1.1-.36.55-1.22.21-1.75-.18s-1.38-.75-1.75-.21a2.78,2.78,0,0,0-.21.57c-.25.72-1,1.09-1.64,1.55s-1.09,1.39-.58,2c.26.28.71.39.83.75s-.3.84-.66,1.15c-.6.51-.7,2,.09,2.45.33.18.82.23.9.6s-.26.58-.48.84a1.57,1.57,0,0,0,.48,2.34c.19.09.43.17.5.37a.76.76,0,0,1-.05.44,2.23,2.23,0,0,0-.07.85.34.34,0,0,0,.1.27.52.52,0,0,0,.25.07c1.15.05,1.7-.36,2.4.64a.64.64,0,0,0,.24.25.65.65,0,0,0,.31.08c.79.07,1.3-.43,2-.52,1-.12,1.21.39,2.09.8C424.09,329.93,424.76,329.53,425,328.59Z" style="fill: rgb(64, 123, 255); transform-origin: 421.598px 321.208px;" id="eldqu1qat6yzw" class="animable"></path><path d="M416.34,332.77a4.62,4.62,0,0,0,.12-.81c.1-1.7,1.72-1.43,3.1-1.66,1.08-.18-1.77-2.9.4-3.78a1.88,1.88,0,0,0,1-.73,1.22,1.22,0,0,0-.47-1.5,2.85,2.85,0,0,0-1.65-.42c-.35-.43-.06-1.07.28-1.51s.76-.94.63-1.49c-.19-.81-1.34-.84-2.16-.68a6,6,0,0,1-.45-1.68c-.15-.56-.6-1.15-1.17-1.08s-.88.68-1.41.81-1.16-.41-1.64-.82-1.34-.66-1.67-.12c-.2.32-.08.77-.29,1.09-.36.55-1.22.21-1.75-.18s-1.37-.75-1.75-.2a2.07,2.07,0,0,0-.2.56c-.25.73-1,1.09-1.65,1.55s-1.09,1.39-.57,2c.25.28.7.39.82.75s-.29.85-.65,1.15c-.6.51-.71,2,.08,2.46.33.17.82.22.9.59s-.26.59-.48.84a1.58,1.58,0,0,0,.49,2.35c.19.09.42.16.49.36a.68.68,0,0,1-.05.44,2.45,2.45,0,0,0-.07.85.41.41,0,0,0,.1.27.37.37,0,0,0,.25.07c1.15.05,1.7-.35,2.4.64a.86.86,0,0,0,.24.26.67.67,0,0,0,.31.07c.79.07,1.31-.42,2-.51,1-.13,1.21.38,2.09.8C415.41,334.12,416.08,333.72,416.34,332.77Z" style="fill: rgb(64, 123, 255); transform-origin: 412.892px 325.396px;" id="elbtzp6mhwjiv" class="animable"></path><path d="M407.56,330.84a4.6,4.6,0,0,0,.12-.82c.1-1.69,1.72-1.42,3.1-1.65,1.08-.18-1.77-2.9.4-3.78a1.88,1.88,0,0,0,1-.73,1.23,1.23,0,0,0-.47-1.51,2.92,2.92,0,0,0-1.65-.41c-.35-.43-.06-1.08.28-1.52s.76-.94.63-1.48c-.19-.82-1.34-.85-2.16-.69a5.81,5.81,0,0,1-.45-1.67c-.15-.56-.6-1.15-1.17-1.08s-.88.68-1.41.8-1.16-.4-1.64-.81-1.34-.67-1.67-.13c-.2.33-.08.78-.29,1.1-.36.55-1.22.21-1.75-.18s-1.37-.75-1.75-.21a2.27,2.27,0,0,0-.2.57c-.25.73-1,1.09-1.65,1.55s-1.09,1.39-.57,2c.25.28.7.39.83.75s-.3.84-.66,1.15c-.6.51-.71,2,.08,2.45.34.18.82.23.9.6s-.26.58-.48.84a1.57,1.57,0,0,0,.49,2.34c.19.09.42.17.49.37a.68.68,0,0,1-.05.44,2.45,2.45,0,0,0-.07.85.3.3,0,0,0,.35.34c1.15.05,1.7-.36,2.4.64a.82.82,0,0,0,.24.25.68.68,0,0,0,.31.08c.79.07,1.31-.42,2-.52,1-.12,1.2.39,2.08.81C406.63,332.19,407.3,331.78,407.56,330.84Z" style="fill: rgb(64, 123, 255); transform-origin: 404.112px 323.461px;" id="el30l2y53macq" class="animable"></path><path d="M407.44,340.23a2.39,2.39,0,0,0,.1-.64c.08-1.34,1.36-1.12,2.44-1.31.85-.14-1.4-2.28.31-3a1.54,1.54,0,0,0,.83-.57,1,1,0,0,0-.38-1.19,2.2,2.2,0,0,0-1.29-.32c-.28-.34-.05-.85.21-1.2s.61-.74.5-1.17c-.15-.64-1.05-.66-1.7-.54a4.77,4.77,0,0,1-.36-1.32c-.11-.44-.46-.9-.92-.85s-.69.54-1.11.64-.91-.32-1.29-.64-1-.53-1.31-.1c-.16.25-.07.61-.23.86-.28.43-1,.16-1.37-.15s-1.09-.58-1.38-.15a1.65,1.65,0,0,0-.16.44c-.2.57-.82.86-1.3,1.22s-.86,1.1-.45,1.54c.2.22.55.31.65.59s-.24.67-.52.91c-.47.4-.56,1.6.07,1.93.26.14.64.18.71.47s-.21.46-.38.66a1.24,1.24,0,0,0,.38,1.85c.15.07.33.13.39.29a.62.62,0,0,1,0,.35,1.83,1.83,0,0,0-.06.66.36.36,0,0,0,.08.21.3.3,0,0,0,.2.06c.9,0,1.34-.28,1.89.51a.58.58,0,0,0,.19.19.52.52,0,0,0,.25.07c.62.05,1-.34,1.59-.41.78-.1.95.3,1.64.63C406.71,341.29,407.24,341,407.44,340.23Z" style="fill: rgb(64, 123, 255); transform-origin: 404.759px 334.402px;" id="el5xcmjm0lrpk" class="animable"></path><path d="M402.52,337a3.91,3.91,0,0,0,.13-.82c.1-1.69,1.72-1.43,3.1-1.66,1.07-.18-1.78-2.9.39-3.77a2,2,0,0,0,1.05-.73,1.24,1.24,0,0,0-.47-1.51,2.94,2.94,0,0,0-1.65-.41c-.36-.43-.07-1.08.28-1.52s.76-.94.63-1.48c-.2-.82-1.34-.85-2.17-.69a6.15,6.15,0,0,1-.45-1.67c-.14-.57-.59-1.16-1.17-1.09s-.87.68-1.41.81-1.15-.4-1.64-.81-1.33-.67-1.67-.13c-.2.33-.08.78-.28,1.1-.36.55-1.22.21-1.75-.19s-1.38-.74-1.75-.2a2.3,2.3,0,0,0-.21.57c-.25.72-1,1.08-1.64,1.55s-1.09,1.39-.58,2c.26.28.7.39.83.75s-.3.84-.66,1.15c-.6.51-.7,2,.09,2.45.33.18.82.23.9.6s-.26.58-.48.83a1.58,1.58,0,0,0,.48,2.35c.19.09.43.17.5.37a.76.76,0,0,1-.05.44,2.41,2.41,0,0,0-.08.85.35.35,0,0,0,.11.26.44.44,0,0,0,.25.08c1.14.05,1.7-.36,2.4.64a.78.78,0,0,0,.23.25.72.72,0,0,0,.32.08c.79.06,1.3-.43,2-.52,1-.13,1.21.39,2.09.8C401.59,338.33,402.26,337.93,402.52,337Z" style="fill: rgb(64, 123, 255); transform-origin: 399.118px 329.614px;" id="el48z81eiz0ch" class="animable"></path><path d="M416.34,322.44a4.62,4.62,0,0,0,.12-.81c.1-1.7,1.72-1.43,3.1-1.66,1.08-.18-1.77-2.9.4-3.78a1.88,1.88,0,0,0,1-.73,1.22,1.22,0,0,0-.47-1.5,2.85,2.85,0,0,0-1.65-.42c-.35-.43-.06-1.07.28-1.51s.76-.94.63-1.49c-.19-.81-1.34-.84-2.16-.68a6,6,0,0,1-.45-1.68c-.15-.56-.6-1.15-1.17-1.08s-.88.68-1.41.8-1.16-.4-1.64-.81-1.34-.66-1.67-.12c-.2.32-.08.77-.29,1.09-.36.55-1.22.21-1.75-.18s-1.37-.75-1.75-.2a2.07,2.07,0,0,0-.2.56c-.25.73-1,1.09-1.65,1.55s-1.09,1.39-.57,2c.25.28.7.39.82.75s-.29.84-.65,1.15c-.6.51-.71,2,.08,2.46.33.17.82.22.9.59s-.26.59-.48.84a1.57,1.57,0,0,0,.49,2.34c.19.1.42.17.49.37a.68.68,0,0,1-.05.44,2.45,2.45,0,0,0-.07.85.41.41,0,0,0,.1.27.37.37,0,0,0,.25.07c1.15.05,1.7-.35,2.4.64a.86.86,0,0,0,.24.26.82.82,0,0,0,.31.07c.79.07,1.31-.42,2-.51,1-.13,1.21.38,2.09.8C415.41,323.79,416.08,323.39,416.34,322.44Z" style="fill: rgb(64, 123, 255); transform-origin: 412.892px 315.066px;" id="el5ju3bjz82q5" class="animable"></path><path d="M427.62,323a4.6,4.6,0,0,0,.12-.82c.1-1.69,1.72-1.42,3.1-1.66,1.07-.18-1.78-2.89.4-3.77a1.88,1.88,0,0,0,1-.73,1.24,1.24,0,0,0-.47-1.51,2.92,2.92,0,0,0-1.65-.41c-.35-.43-.06-1.08.28-1.52s.76-.94.63-1.48c-.2-.82-1.34-.85-2.17-.69a6.13,6.13,0,0,1-.44-1.67c-.15-.56-.6-1.15-1.17-1.08s-.88.68-1.41.8-1.16-.4-1.64-.81-1.34-.67-1.67-.13c-.2.33-.08.78-.29,1.1-.36.55-1.22.21-1.75-.19s-1.37-.74-1.75-.2a2.27,2.27,0,0,0-.2.57c-.25.72-1,1.09-1.65,1.55s-1.09,1.39-.58,2c.26.28.71.39.83.75s-.29.84-.65,1.15c-.6.51-.71,2,.08,2.45.33.18.82.23.9.6s-.26.58-.48.84a1.57,1.57,0,0,0,.48,2.34c.19.09.43.17.5.37a.76.76,0,0,1-.05.44,2.41,2.41,0,0,0-.07.85.43.43,0,0,0,.1.27.52.52,0,0,0,.25.07c1.15.05,1.7-.36,2.4.64a1,1,0,0,0,.24.25.65.65,0,0,0,.31.08c.79.07,1.3-.43,2-.52,1-.12,1.21.39,2.09.8C426.69,324.36,427.36,324,427.62,323Z" style="fill: rgb(64, 123, 255); transform-origin: 424.171px 315.629px;" id="elezaydqwy34j" class="animable"></path><path d="M434.47,327.64a4.74,4.74,0,0,0,.12-.82c.1-1.7,1.72-1.43,3.1-1.66,1.08-.18-1.77-2.9.4-3.78a1.83,1.83,0,0,0,1-.73,1.22,1.22,0,0,0-.47-1.5,2.92,2.92,0,0,0-1.65-.41c-.35-.43-.06-1.08.28-1.52s.76-.94.63-1.48c-.19-.82-1.34-.85-2.16-.69a6,6,0,0,1-.45-1.68c-.15-.56-.6-1.15-1.17-1.08s-.88.68-1.41.81-1.16-.4-1.64-.82-1.34-.66-1.67-.12c-.2.32-.08.77-.29,1.09-.36.56-1.22.21-1.75-.18s-1.37-.75-1.75-.2a2,2,0,0,0-.2.57c-.25.72-1,1.08-1.65,1.55s-1.09,1.39-.57,1.95c.25.28.7.4.82.75s-.29.85-.65,1.15c-.6.51-.71,2,.08,2.46.33.17.82.23.9.59s-.26.59-.48.84a1.58,1.58,0,0,0,.49,2.35c.19.09.42.16.49.36a.71.71,0,0,1-.05.45,2.41,2.41,0,0,0-.07.85.4.4,0,0,0,.1.26.37.37,0,0,0,.25.07c1.15.05,1.7-.35,2.4.64a.86.86,0,0,0,.24.26.79.79,0,0,0,.31.08c.79.06,1.31-.43,2-.52,1-.13,1.2.39,2.08.8C433.54,329,434.21,328.58,434.47,327.64Z" style="fill: rgb(64, 123, 255); transform-origin: 431.022px 320.253px;" id="el94tnglk0lf" class="animable"></path><path d="M432.39,333.47s-2.87,4-3.85,5.34-5.93,9.28-6.6,14.58c-.07.56-.15,1.05-.21,1.47,2.12,14,1.79,39.69,1.71,44.08h-6.73c-.06-4.95-.63-50.24-.84-51.62s-3-7-7.39-9.32-8.1-9.86-8.1-9.86h1.38a24.81,24.81,0,0,0,6.23,7.21,14.4,14.4,0,0,0,1.64,1,23.26,23.26,0,0,1,1.46-8.18l.74.69a19.48,19.48,0,0,0-.57,8.3,15.22,15.22,0,0,1,3.78,2.53c3.79-4.93,5.93-16.2,5.93-16.2l1,.53a57.77,57.77,0,0,1-1.26,6.91,115,115,0,0,1-3.77,10.91,25.29,25.29,0,0,1,2.86,5.38,2.27,2.27,0,0,1,.37-.44c2.47-2.23,7.11-12.79,7.11-12.79,1.13-2.45-.59-8.89-.59-8.89H428l.58,5.63,3.26-3.55.59.49-3.46,4.45-1.78,5.63,4.65-5.14Z" style="fill: rgb(38, 50, 56); transform-origin: 416.405px 361.215px;" id="elu9273xtlm1j" class="animable"></path><path d="M425.6,398.94H403.45a2.08,2.08,0,0,1,1.37-2.46c1.08-.22,2.16-2.12,2.21-3.32s2-4.93,5-2.63,2.1.34,4.29-.31,3.56,1.21,2.6,2.6a2.7,2.7,0,0,1,3.1,1.5,3.46,3.46,0,0,1,0,3.32S424.8,397.56,425.6,398.94Z" style="fill: rgb(64, 123, 255); transform-origin: 414.496px 394.368px;" id="elkq86duws8la" class="animable"></path><path d="M369.37,399.52c.1-.79.06-1.94-.92-2.26a3.11,3.11,0,0,1-2.37-3c.05-1.34-1.56-2.64-2.76-1.39s-1-1-2.65-1.5-3,.77-2.52,2-1.14,1.94-3,.93-4,.83-3.58,2.27.08,1.6-1.12,1.12a2.19,2.19,0,0,0-2.74,1.88Z" style="fill: rgb(64, 123, 255); transform-origin: 358.559px 395.414px;" id="elq5ex3904osi" class="animable"></path><path d="M346.89,351.28a3.29,3.29,0,0,1-.09-.66c-.08-1.35-1.38-1.13-2.47-1.32-.86-.14,1.41-2.31-.32-3a1.47,1.47,0,0,1-.83-.58,1,1,0,0,1,.37-1.2,2.4,2.4,0,0,1,1.32-.33c.28-.34.05-.86-.22-1.21s-.61-.75-.51-1.18c.16-.65,1.07-.68,1.73-.55a4.58,4.58,0,0,0,.35-1.33c.12-.45.48-.92.94-.87s.7.55,1.12.65.92-.32,1.31-.65,1.06-.53,1.33-.1c.16.26.06.62.23.87.29.44,1,.17,1.39-.14s1.1-.6,1.4-.17a1.79,1.79,0,0,1,.16.46c.2.57.82.86,1.31,1.23s.87,1.11.46,1.56c-.2.22-.56.32-.66.6s.24.67.52.92c.48.4.57,1.62-.06,2-.27.14-.66.19-.72.48s.2.46.38.67a1.26,1.26,0,0,1-.38,1.87c-.16.07-.34.13-.4.29a.62.62,0,0,0,0,.35,1.94,1.94,0,0,1,.06.68.32.32,0,0,1-.08.21.36.36,0,0,1-.2.06c-.92,0-1.36-.29-1.91.51a.9.9,0,0,1-.19.2.76.76,0,0,1-.26.06c-.62,0-1-.34-1.61-.41-.79-.1-1,.31-1.66.64C347.64,352.35,347.1,352,346.89,351.28Z" style="fill: rgb(64, 123, 255); transform-origin: 349.613px 345.401px;" id="elafmfqg4du2b" class="animable"></path><path d="M357.41,350.14a2.53,2.53,0,0,1-.1-.65c-.08-1.35-1.37-1.14-2.47-1.32-.86-.15,1.41-2.31-.32-3a1.49,1.49,0,0,1-.83-.59,1,1,0,0,1,.37-1.2,2.32,2.32,0,0,1,1.32-.32c.28-.35.05-.86-.22-1.21s-.61-.75-.51-1.19c.16-.65,1.07-.67,1.73-.54a5,5,0,0,0,.36-1.34c.11-.45.47-.92.93-.86s.7.54,1.12.64.92-.32,1.31-.65,1.06-.53,1.33-.1c.16.26.06.62.23.88.29.44,1,.16,1.39-.15s1.1-.6,1.4-.16a1.72,1.72,0,0,1,.16.45c.2.58.82.87,1.31,1.24s.87,1.1.46,1.56c-.2.22-.56.31-.66.59s.24.68.52.92c.48.41.57,1.62-.06,2-.27.14-.66.18-.72.47s.2.47.38.67a1.25,1.25,0,0,1-.38,1.87c-.15.07-.34.13-.4.29a.61.61,0,0,0,0,.35,1.94,1.94,0,0,1,.06.68.3.3,0,0,1-.08.21.3.3,0,0,1-.2.06c-.92,0-1.36-.28-1.91.51a.61.61,0,0,1-.19.2.59.59,0,0,1-.26.07c-.62,0-1-.34-1.61-.42-.79-.1-1,.31-1.66.64C358.15,351.21,357.61,350.89,357.41,350.14Z" style="fill: rgb(64, 123, 255); transform-origin: 360.123px 344.262px;" id="elgqg8bmynsu" class="animable"></path><path d="M358.42,343.45a3.16,3.16,0,0,1-.1-.66c-.08-1.35-1.37-1.13-2.47-1.32-.86-.14,1.41-2.31-.32-3a1.47,1.47,0,0,1-.83-.58,1,1,0,0,1,.38-1.2,2.35,2.35,0,0,1,1.31-.33c.28-.34.05-.86-.22-1.21s-.61-.75-.51-1.18c.16-.65,1.07-.67,1.73-.55a4.93,4.93,0,0,0,.36-1.33c.12-.45.47-.92.93-.86s.7.54,1.12.64.93-.32,1.31-.65,1.07-.53,1.33-.1c.16.26.07.62.23.87.29.44,1,.17,1.39-.14s1.1-.6,1.4-.17a1.79,1.79,0,0,1,.16.46c.2.57.83.86,1.31,1.23s.88,1.11.46,1.56c-.2.23-.56.32-.66.6s.24.67.53.92c.48.4.56,1.62-.07,1.95-.27.14-.65.19-.72.48s.21.46.38.67a1.25,1.25,0,0,1-.38,1.87c-.15.07-.34.13-.39.29a.61.61,0,0,0,0,.35,1.94,1.94,0,0,1,.06.68.28.28,0,0,1-.08.21.34.34,0,0,1-.2.06c-.91,0-1.35-.29-1.91.51a.72.72,0,0,1-.19.2.57.57,0,0,1-.25.06c-.63.05-1-.34-1.61-.41-.8-.1-1,.31-1.67.64C359.16,344.52,358.63,344.2,358.42,343.45Z" style="fill: rgb(64, 123, 255); transform-origin: 361.136px 337.566px;" id="el1wnpebzfped" class="animable"></path><path d="M365.34,346.78a3.87,3.87,0,0,1-.1-.65c-.08-1.35-1.37-1.14-2.47-1.32-.85-.15,1.42-2.31-.31-3a1.55,1.55,0,0,1-.84-.59A1,1,0,0,1,362,340a2.28,2.28,0,0,1,1.31-.32c.29-.35.06-.86-.22-1.21s-.6-.75-.5-1.18c.16-.66,1.07-.68,1.73-.55a5,5,0,0,0,.35-1.34c.12-.45.48-.92.94-.86s.69.54,1.12.64.92-.32,1.31-.65,1.06-.53,1.33-.1c.16.26.06.62.23.88.28.44,1,.16,1.39-.15s1.1-.59,1.39-.16a2.2,2.2,0,0,1,.17.45c.2.58.82.87,1.31,1.24s.87,1.1.46,1.56c-.2.22-.56.31-.66.59s.23.68.52.92c.48.41.57,1.62-.07,2-.26.14-.65.18-.72.47s.21.47.39.67a1.26,1.26,0,0,1-.39,1.87c-.15.07-.33.13-.39.29a.54.54,0,0,0,0,.35,1.94,1.94,0,0,1,.06.68.31.31,0,0,1-.09.21.28.28,0,0,1-.2.06c-.91,0-1.35-.28-1.91.51a.5.5,0,0,1-.44.27c-.63.05-1-.34-1.61-.42-.79-.1-1,.31-1.66.64C366.08,347.85,365.55,347.53,365.34,346.78Z" style="fill: rgb(64, 123, 255); transform-origin: 368.055px 340.889px;" id="el7vysqfdx4j6" class="animable"></path><path d="M372.34,345.24a3.87,3.87,0,0,1-.1-.65c-.08-1.35-1.37-1.14-2.47-1.32-.86-.15,1.42-2.31-.31-3a1.51,1.51,0,0,1-.84-.59,1,1,0,0,1,.38-1.2,2.26,2.26,0,0,1,1.31-.32c.28-.35.05-.86-.22-1.21s-.61-.75-.5-1.19c.15-.65,1.06-.67,1.72-.54a4.66,4.66,0,0,0,.36-1.34c.12-.45.47-.92.93-.86s.7.54,1.13.64.92-.32,1.3-.65,1.07-.53,1.33-.1c.16.26.07.62.23.88.29.44,1,.16,1.4-.15s1.09-.59,1.39-.16a2.2,2.2,0,0,1,.17.45c.2.58.82.87,1.31,1.24s.87,1.1.46,1.56c-.21.22-.56.31-.66.59s.23.68.52.92c.48.41.56,1.62-.07,2-.26.14-.65.18-.72.47s.21.47.39.67a1.26,1.26,0,0,1-.39,1.87c-.15.07-.34.13-.39.29a.6.6,0,0,0,0,.35,1.56,1.56,0,0,1,.06.68.26.26,0,0,1-.08.21.28.28,0,0,1-.2.06c-.91,0-1.35-.28-1.91.51a.5.5,0,0,1-.44.27c-.63.05-1-.34-1.61-.42-.8-.1-1,.31-1.67.64C373.08,346.31,372.55,346,372.34,345.24Z" style="fill: rgb(64, 123, 255); transform-origin: 375.056px 339.363px;" id="eln0xj6u7f4eg" class="animable"></path><path d="M372.43,352.73a3.79,3.79,0,0,1-.08-.52c-.06-1.06-1.08-.89-1.94-1-.68-.11,1.11-1.82-.25-2.37a1.21,1.21,0,0,1-.66-.46.78.78,0,0,1,.3-.94,1.82,1.82,0,0,1,1-.26c.23-.27.05-.68-.17-.95s-.48-.59-.4-.93c.13-.52.84-.53,1.36-.44a3.61,3.61,0,0,0,.28-1.05c.1-.35.38-.72.74-.67s.55.42.88.5.73-.25,1-.51.84-.42,1.05-.08,0,.49.18.69c.23.35.76.13,1.1-.12s.86-.46,1.1-.12a1.31,1.31,0,0,1,.12.35c.16.46.65.68,1,1s.68.87.36,1.22c-.16.18-.44.25-.52.47s.19.53.41.73c.38.32.45,1.28-.05,1.54-.21.11-.52.14-.57.37s.17.37.3.53a1,1,0,0,1-.3,1.47c-.12.06-.26.1-.31.23a.45.45,0,0,0,0,.28,1.57,1.57,0,0,1,.05.53.26.26,0,0,1-.07.17.27.27,0,0,1-.16,0c-.71,0-1.06-.22-1.5.4a.46.46,0,0,1-.15.16.35.35,0,0,1-.2.05c-.49,0-.81-.26-1.27-.32-.62-.08-.75.24-1.31.5C373,353.57,372.59,353.32,372.43,352.73Z" style="fill: rgb(64, 123, 255); transform-origin: 374.52px 348.112px;" id="els6kuaycopf" class="animable"></path><path d="M376.35,350.14a3.87,3.87,0,0,1-.1-.65c-.08-1.35-1.37-1.14-2.47-1.32-.85-.15,1.42-2.31-.31-3a1.55,1.55,0,0,1-.84-.59,1,1,0,0,1,.38-1.2,2.28,2.28,0,0,1,1.31-.32c.29-.35.06-.86-.22-1.21s-.6-.75-.5-1.19c.16-.65,1.07-.67,1.73-.54a5,5,0,0,0,.35-1.34c.12-.45.48-.92.94-.86s.69.54,1.12.64.92-.32,1.31-.65,1.06-.53,1.33-.1c.16.26.06.62.23.88.28.44,1,.16,1.39-.15s1.1-.6,1.39-.16a2.2,2.2,0,0,1,.17.45c.2.58.82.87,1.31,1.24s.87,1.1.46,1.56c-.2.22-.56.31-.66.59s.23.68.52.92c.48.41.57,1.62-.07,2-.26.14-.65.18-.72.47s.21.47.39.67a1.26,1.26,0,0,1-.39,1.87c-.15.07-.33.13-.39.29a.54.54,0,0,0,0,.35,1.94,1.94,0,0,1,.06.68.31.31,0,0,1-.09.21.28.28,0,0,1-.2.06c-.91,0-1.35-.28-1.91.51a.5.5,0,0,1-.44.27c-.63,0-1-.34-1.61-.42-.79-.1-1,.31-1.66.64C377.09,351.21,376.56,350.89,376.35,350.14Z" style="fill: rgb(64, 123, 255); transform-origin: 379.068px 344.262px;" id="elsgs7vr37xti" class="animable"></path><path d="M365.34,338.55a4,4,0,0,1-.1-.66c-.08-1.35-1.37-1.13-2.47-1.32-.85-.14,1.42-2.31-.31-3a1.53,1.53,0,0,1-.84-.58,1,1,0,0,1,.38-1.2,2.37,2.37,0,0,1,1.31-.33c.29-.34.06-.86-.22-1.21s-.6-.75-.5-1.18c.16-.65,1.07-.67,1.73-.55a4.82,4.82,0,0,0,.35-1.33c.12-.45.48-.92.94-.86s.69.54,1.12.64.92-.32,1.31-.65,1.06-.53,1.33-.1c.16.26.06.62.23.87.28.44,1,.17,1.39-.14s1.1-.6,1.39-.17a2.29,2.29,0,0,1,.17.46c.2.57.82.86,1.31,1.23s.87,1.11.46,1.56c-.2.23-.56.32-.66.6s.23.67.52.92c.48.4.57,1.62-.07,1.95-.26.14-.65.19-.72.48s.21.46.39.67a1.26,1.26,0,0,1-.39,1.87c-.15.07-.33.13-.39.29a.54.54,0,0,0,0,.35,1.94,1.94,0,0,1,.06.68.31.31,0,0,1-.09.21.34.34,0,0,1-.2.06c-.91,0-1.35-.29-1.91.51a.72.72,0,0,1-.19.2.51.51,0,0,1-.25.06c-.63.05-1-.34-1.61-.41-.79-.1-1,.31-1.66.64C366.08,339.62,365.55,339.3,365.34,338.55Z" style="fill: rgb(64, 123, 255); transform-origin: 368.058px 332.666px;" id="elml2e7jgvyqq" class="animable"></path><path d="M356.35,339a4,4,0,0,1-.1-.66c-.08-1.35-1.37-1.13-2.47-1.32-.85-.14,1.42-2.31-.31-3a1.53,1.53,0,0,1-.84-.58,1,1,0,0,1,.38-1.2,2.37,2.37,0,0,1,1.31-.33c.29-.34.06-.86-.22-1.21s-.6-.75-.5-1.18c.16-.65,1.07-.67,1.73-.55a4.92,4.92,0,0,0,.35-1.33c.12-.45.48-.92.94-.86s.69.54,1.12.64.92-.32,1.31-.65,1.06-.53,1.33-.1c.16.26.06.62.23.87.28.44,1,.17,1.39-.14s1.1-.6,1.39-.17a2.29,2.29,0,0,1,.17.46c.2.57.82.86,1.31,1.23s.87,1.11.46,1.56c-.2.22-.56.32-.66.6s.23.67.52.92c.48.4.57,1.62-.07,1.95-.26.14-.65.19-.72.48s.21.46.39.67a1.26,1.26,0,0,1-.39,1.87c-.15.07-.33.13-.39.29a.54.54,0,0,0,0,.35,1.94,1.94,0,0,1,.06.68.33.33,0,0,1-.09.21.34.34,0,0,1-.2.06c-.91,0-1.35-.29-1.91.51a.72.72,0,0,1-.19.2.51.51,0,0,1-.25.06c-.63.05-1-.34-1.61-.41-.79-.1-1,.31-1.66.64C357.09,340.08,356.56,339.76,356.35,339Z" style="fill: rgb(64, 123, 255); transform-origin: 359.068px 333.12px;" id="el821i8790i7n" class="animable"></path><path d="M350.89,342.68a3.87,3.87,0,0,1-.1-.65c-.08-1.35-1.37-1.14-2.47-1.32-.85-.14,1.42-2.31-.31-3a1.58,1.58,0,0,1-.84-.58,1,1,0,0,1,.38-1.2,2.35,2.35,0,0,1,1.31-.33c.29-.34.06-.86-.22-1.21s-.6-.75-.5-1.18c.16-.65,1.07-.68,1.73-.55a4.92,4.92,0,0,0,.35-1.33c.12-.45.48-.92.94-.87s.69.55,1.12.65.92-.32,1.31-.65,1.06-.53,1.33-.1c.16.26.06.62.23.87.28.44,1,.17,1.39-.14s1.1-.6,1.39-.17a2.29,2.29,0,0,1,.17.46c.2.57.82.86,1.31,1.23s.87,1.11.46,1.56c-.21.22-.56.31-.66.6s.23.67.52.92c.48.4.57,1.62-.07,1.95-.26.14-.65.18-.72.48s.21.46.39.66a1.25,1.25,0,0,1-.39,1.87c-.15.08-.33.14-.39.3a.54.54,0,0,0,0,.35,1.94,1.94,0,0,1,.06.68.33.33,0,0,1-.09.21.43.43,0,0,1-.2.06c-.91,0-1.35-.29-1.91.51a.72.72,0,0,1-.19.2.66.66,0,0,1-.25.06c-.63.05-1-.34-1.61-.41-.79-.1-1,.31-1.66.64C351.63,343.76,351.1,343.44,350.89,342.68Z" style="fill: rgb(64, 123, 255); transform-origin: 353.608px 336.806px;" id="elcxlcq093ber" class="animable"></path><path d="M352.55,347.33s2.28,3.23,3.07,4.26,4.72,7.4,5.26,11.62c.06.45.11.84.17,1.17-1.7,11.18-1.43,31.63-1.37,35.14H365c0-3.95.51-40,.68-41.15a13.75,13.75,0,0,1,5.88-7.43c3.47-1.82,6.46-7.86,6.46-7.86H377a19.85,19.85,0,0,1-5,5.75,11,11,0,0,1-1.31.78,18.71,18.71,0,0,0-1.16-6.53l-.6.55a15.49,15.49,0,0,1,.46,6.62,12.15,12.15,0,0,0-3,2c-3-3.93-4.72-12.92-4.72-12.92l-.77.42a45.27,45.27,0,0,0,1,5.52,89.27,89.27,0,0,0,3,8.69,20.84,20.84,0,0,0-2.29,4.29,1.64,1.64,0,0,0-.29-.35c-2-1.78-5.67-10.19-5.67-10.19-.89-2,.47-7.09.47-7.09h-1l-.46,4.49-2.6-2.84-.47.4,2.75,3.54,1.42,4.49-3.7-4.09Z" style="fill: rgb(38, 50, 56); transform-origin: 365.285px 369.425px;" id="eldq6ccqm7ryw" class="animable"></path><path d="M358,399.52h17.66a1.68,1.68,0,0,0-1.1-2c-.86-.17-1.72-1.68-1.76-2.64s-1.59-3.93-4-2.1-1.67.27-3.41-.24-2.84,1-2.08,2.07a2.13,2.13,0,0,0-2.46,1.2,2.74,2.74,0,0,0,0,2.64S358.6,398.42,358,399.52Z" style="fill: rgb(64, 123, 255); transform-origin: 366.855px 395.858px;" id="el98nkci7t9p7" class="animable"></path><path d="M93.72,401.93c.12-1,.07-2.42-1.15-2.83a3.91,3.91,0,0,1-3-3.78c.06-1.68-2-3.31-3.46-1.74s-1.31-1.2-3.32-1.88-3.72,1-3.17,2.46-1.43,2.43-3.81,1.16-5,1-4.49,2.85.09,2-1.41,1.41a2.76,2.76,0,0,0-3.44,2.35Z" style="fill: rgb(64, 123, 255); transform-origin: 80.1169px 396.737px;" id="elowngz3qvfqc" class="animable"></path><path d="M104.27,341.41a3.91,3.91,0,0,0,.13-.82c.1-1.7,1.72-1.43,3.09-1.66,1.08-.18-1.77-2.9.4-3.78a1.89,1.89,0,0,0,1-.73,1.23,1.23,0,0,0-.47-1.5,2.94,2.94,0,0,0-1.65-.41c-.36-.43-.07-1.08.27-1.52s.77-.94.64-1.48c-.2-.82-1.34-.85-2.17-.69a6.22,6.22,0,0,1-.45-1.68c-.14-.56-.59-1.15-1.17-1.08s-.87.68-1.41.81-1.15-.4-1.64-.81-1.33-.67-1.67-.13c-.2.32-.08.77-.28,1.09-.37.56-1.22.21-1.75-.18s-1.38-.75-1.75-.2a2,2,0,0,0-.21.57c-.25.72-1,1.08-1.64,1.55s-1.1,1.39-.58,1.95c.26.28.7.4.83.75s-.3.85-.66,1.15c-.6.51-.71,2,.09,2.46.33.17.82.23.9.59s-.26.59-.48.84a1.58,1.58,0,0,0,.48,2.35c.19.09.42.16.5.36a.79.79,0,0,1,0,.45,2.41,2.41,0,0,0-.08.85.36.36,0,0,0,.11.26.35.35,0,0,0,.25.07c1.14.05,1.7-.35,2.39.64a.86.86,0,0,0,.24.26.89.89,0,0,0,.32.08c.79.06,1.3-.43,2-.52,1-.13,1.21.39,2.09.8C103.34,342.75,104,342.35,104.27,341.41Z" style="fill: rgb(64, 123, 255); transform-origin: 100.816px 334.022px;" id="elml2xkepqflk" class="animable"></path><path d="M91.09,340a4.6,4.6,0,0,0,.12-.82c.1-1.69,1.72-1.42,3.1-1.65,1.07-.18-1.78-2.9.39-3.78a1.9,1.9,0,0,0,1-.73,1.24,1.24,0,0,0-.47-1.51,2.92,2.92,0,0,0-1.65-.41c-.35-.43-.07-1.08.28-1.52s.76-.94.63-1.48c-.2-.82-1.34-.85-2.17-.69a5.79,5.79,0,0,1-.44-1.67c-.15-.56-.6-1.15-1.18-1.08s-.87.68-1.4.8-1.16-.4-1.65-.81S86.37,324,86,324.5c-.2.33-.08.78-.29,1.1-.36.55-1.22.21-1.75-.18s-1.38-.75-1.75-.21a2.27,2.27,0,0,0-.2.57c-.26.73-1,1.09-1.65,1.55s-1.09,1.39-.58,2c.26.28.71.39.83.75s-.29.84-.65,1.15c-.6.51-.71,2,.08,2.45.33.18.82.23.9.6s-.26.58-.48.84a1.57,1.57,0,0,0,.48,2.34c.19.09.43.17.5.37a.76.76,0,0,1,0,.44,2.45,2.45,0,0,0-.07.85.43.43,0,0,0,.1.27.52.52,0,0,0,.25.07c1.15.05,1.7-.36,2.4.64a.64.64,0,0,0,.24.25.65.65,0,0,0,.31.08c.79.07,1.3-.42,2-.52,1-.12,1.21.39,2.09.8C90.15,341.32,90.83,340.92,91.09,340Z" style="fill: rgb(64, 123, 255); transform-origin: 87.6358px 332.61px;" id="elrutomip78g" class="animable"></path><path d="M89.81,331.58a3.81,3.81,0,0,0,.13-.81c.1-1.7,1.72-1.43,3.1-1.66,1.07-.18-1.78-2.9.39-3.78a1.9,1.9,0,0,0,1-.73,1.23,1.23,0,0,0-.47-1.5,2.87,2.87,0,0,0-1.65-.42c-.35-.43-.07-1.08.28-1.51s.76-.94.63-1.49c-.2-.82-1.34-.84-2.17-.69a6.15,6.15,0,0,1-.45-1.67c-.14-.56-.59-1.15-1.17-1.08s-.87.68-1.41.8-1.15-.4-1.64-.81-1.33-.66-1.66-.12c-.2.32-.09.77-.29,1.09-.36.55-1.22.21-1.75-.18s-1.38-.75-1.75-.21a2.78,2.78,0,0,0-.21.57c-.25.73-1,1.09-1.64,1.55s-1.09,1.39-.58,2c.26.28.71.39.83.75s-.3.84-.66,1.15c-.6.51-.7,2,.09,2.45.33.18.82.23.9.6s-.26.58-.48.84a1.57,1.57,0,0,0,.48,2.34c.19.1.43.17.5.37a.75.75,0,0,1,0,.44,2.23,2.23,0,0,0-.07.85.34.34,0,0,0,.1.27.37.37,0,0,0,.25.07c1.15.05,1.7-.35,2.4.64a.62.62,0,0,0,.23.25.72.72,0,0,0,.32.08c.79.07,1.3-.42,2-.51,1-.13,1.21.38,2.09.8C88.88,332.93,89.55,332.53,89.81,331.58Z" style="fill: rgb(64, 123, 255); transform-origin: 86.3579px 324.206px;" id="el16qfr3kylfd" class="animable"></path><path d="M81.13,335.77a4.74,4.74,0,0,0,.12-.82c.1-1.7,1.72-1.43,3.1-1.66,1.08-.18-1.77-2.9.4-3.78a1.83,1.83,0,0,0,1-.73,1.22,1.22,0,0,0-.47-1.5,2.92,2.92,0,0,0-1.65-.41c-.35-.43-.06-1.08.28-1.52s.76-.94.63-1.48c-.19-.82-1.34-.85-2.16-.69A5.87,5.87,0,0,1,82,321.5c-.15-.56-.6-1.15-1.17-1.08s-.88.68-1.41.81-1.16-.4-1.64-.81-1.34-.67-1.67-.13c-.2.32-.08.77-.29,1.09-.36.56-1.22.21-1.75-.18s-1.37-.75-1.75-.2a2,2,0,0,0-.2.57c-.25.72-1,1.08-1.65,1.55s-1.09,1.39-.57,1.95c.25.28.7.4.82.75s-.29.85-.65,1.15c-.6.51-.71,2,.08,2.46.33.17.82.23.9.59s-.26.59-.48.84a1.57,1.57,0,0,0,.49,2.35c.19.09.42.16.49.36a.71.71,0,0,1,0,.45,2.38,2.38,0,0,0-.07.84.41.41,0,0,0,.1.27.37.37,0,0,0,.25.07c1.15.05,1.7-.35,2.4.64a.86.86,0,0,0,.24.26.79.79,0,0,0,.31.08c.79.06,1.31-.43,2-.52,1-.13,1.21.39,2.09.8C80.2,337.11,80.87,336.71,81.13,335.77Z" style="fill: rgb(64, 123, 255); transform-origin: 77.7166px 328.382px;" id="eletc2pzzfze" class="animable"></path><path d="M72.35,333.83a4.62,4.62,0,0,0,.12-.81c.1-1.7,1.72-1.43,3.1-1.66,1.08-.18-1.77-2.9.4-3.78a1.88,1.88,0,0,0,1-.73,1.22,1.22,0,0,0-.47-1.5,2.85,2.85,0,0,0-1.65-.42c-.35-.43-.06-1.07.28-1.51s.76-.94.63-1.49c-.19-.81-1.34-.84-2.16-.68a6,6,0,0,1-.45-1.68c-.15-.56-.6-1.15-1.17-1.08s-.88.68-1.41.8-1.16-.4-1.64-.81-1.34-.66-1.67-.12c-.2.32-.08.77-.29,1.09-.36.55-1.22.21-1.75-.18s-1.37-.75-1.75-.2a2.07,2.07,0,0,0-.2.56c-.25.73-1,1.09-1.65,1.55s-1.09,1.39-.57,2c.25.28.7.39.82.75s-.29.85-.65,1.15c-.6.51-.71,2,.08,2.46.33.17.82.22.9.59s-.26.59-.48.84a1.56,1.56,0,0,0,.49,2.34c.19.1.42.17.49.37a.68.68,0,0,1-.05.44,2.45,2.45,0,0,0-.07.85.41.41,0,0,0,.1.27.37.37,0,0,0,.25.07c1.15.05,1.7-.35,2.4.64a.86.86,0,0,0,.24.26.64.64,0,0,0,.31.07c.79.07,1.31-.42,2-.51,1-.13,1.21.38,2.09.8C71.42,335.18,72.09,334.78,72.35,333.83Z" style="fill: rgb(64, 123, 255); transform-origin: 68.9016px 326.456px;" id="elw06xw822ig" class="animable"></path><path d="M72.23,343.23a3.06,3.06,0,0,0,.1-.65c.08-1.33,1.35-1.12,2.44-1.3.85-.14-1.4-2.29.31-3a1.54,1.54,0,0,0,.83-.57,1,1,0,0,0-.38-1.19,2.3,2.3,0,0,0-1.29-.32c-.28-.34-.06-.85.21-1.2s.6-.74.5-1.16c-.15-.65-1-.67-1.7-.55a4.79,4.79,0,0,1-.36-1.31c-.11-.45-.46-.91-.92-.86s-.69.54-1.11.64-.91-.32-1.29-.64-1-.53-1.31-.1c-.16.25-.07.61-.23.86-.28.44-1,.17-1.38-.14s-1.08-.59-1.37-.16a2.11,2.11,0,0,0-.17.44c-.19.57-.81.86-1.29,1.23s-.86,1.09-.45,1.54c.2.22.55.31.65.59s-.24.66-.52.9c-.47.4-.56,1.61.07,1.93.26.14.64.19.71.47s-.21.46-.38.66a1.24,1.24,0,0,0,.38,1.85c.15.07.33.13.39.29a.62.62,0,0,1,0,.35,1.87,1.87,0,0,0-.06.67.39.39,0,0,0,.08.21.35.35,0,0,0,.2,0c.9,0,1.34-.28,1.89.51a.72.72,0,0,0,.19.2.65.65,0,0,0,.24.06c.62.05,1-.34,1.6-.41.78-.1,1,.31,1.64.63C71.5,344.28,72,344,72.23,343.23Z" style="fill: rgb(64, 123, 255); transform-origin: 69.5493px 337.393px;" id="elj1y4ohuxrg" class="animable"></path><path d="M67.31,340a3.81,3.81,0,0,0,.13-.82c.1-1.69,1.72-1.42,3.1-1.65,1.07-.18-1.78-2.9.39-3.78a1.94,1.94,0,0,0,1-.73,1.24,1.24,0,0,0-.47-1.51,2.94,2.94,0,0,0-1.65-.41c-.36-.43-.07-1.08.28-1.52s.76-.94.63-1.48c-.2-.82-1.34-.85-2.17-.69a6.15,6.15,0,0,1-.45-1.67c-.14-.56-.59-1.15-1.17-1.08s-.87.68-1.41.8-1.15-.4-1.64-.81-1.33-.67-1.67-.13c-.2.33-.08.78-.28,1.1-.36.55-1.22.21-1.75-.18s-1.38-.75-1.75-.21a2.3,2.3,0,0,0-.21.57c-.25.73-1,1.09-1.64,1.55s-1.1,1.39-.58,2c.26.28.7.39.83.75s-.3.84-.66,1.15c-.6.51-.71,2,.09,2.45.33.18.82.23.9.6s-.26.58-.48.84a1.57,1.57,0,0,0,.48,2.34c.19.09.43.17.5.37a.76.76,0,0,1-.05.44,2.46,2.46,0,0,0-.08.85.39.39,0,0,0,.11.27.52.52,0,0,0,.25.07c1.14.05,1.7-.36,2.4.64a.69.69,0,0,0,.23.25.72.72,0,0,0,.32.08c.79.07,1.3-.42,2-.52,1-.12,1.21.39,2.09.8C66.38,341.32,67.05,340.92,67.31,340Z" style="fill: rgb(64, 123, 255); transform-origin: 63.8565px 332.611px;" id="eldl9uzlnfc0e" class="animable"></path><path d="M81.13,325.44a4.74,4.74,0,0,0,.12-.82c.1-1.7,1.72-1.43,3.1-1.66,1.08-.18-1.77-2.9.4-3.78a1.83,1.83,0,0,0,1-.73,1.22,1.22,0,0,0-.47-1.5,2.92,2.92,0,0,0-1.65-.41c-.35-.44-.06-1.08.28-1.52s.76-.94.63-1.48c-.19-.82-1.34-.85-2.16-.69a6,6,0,0,1-.45-1.68c-.15-.56-.6-1.15-1.17-1.08s-.88.68-1.41.81-1.16-.4-1.64-.82-1.34-.66-1.67-.12c-.2.32-.08.77-.29,1.09-.36.55-1.22.21-1.75-.18s-1.37-.75-1.75-.2a2.07,2.07,0,0,0-.2.56c-.25.73-1,1.09-1.65,1.56s-1.09,1.38-.57,1.95c.25.28.7.4.82.75s-.29.85-.65,1.15c-.6.51-.71,2,.08,2.46.33.17.82.23.9.59s-.26.59-.48.84a1.57,1.57,0,0,0,.49,2.35c.19.09.42.16.49.36a.68.68,0,0,1,0,.44,2.45,2.45,0,0,0-.07.85.41.41,0,0,0,.1.27.37.37,0,0,0,.25.07c1.15.05,1.7-.35,2.4.64a.86.86,0,0,0,.24.26.79.79,0,0,0,.31.08c.79.06,1.31-.43,2-.52,1-.13,1.21.39,2.09.8C80.2,326.78,80.87,326.38,81.13,325.44Z" style="fill: rgb(64, 123, 255); transform-origin: 77.6816px 318.048px;" id="el3igf8s5pakq" class="animable"></path><path d="M92.41,326a4.6,4.6,0,0,0,.12-.82c.1-1.69,1.72-1.42,3.1-1.65,1.07-.18-1.78-2.9.39-3.78a1.87,1.87,0,0,0,1-.73,1.23,1.23,0,0,0-.47-1.5,2.85,2.85,0,0,0-1.65-.42c-.35-.43-.06-1.08.28-1.52s.76-.94.63-1.48c-.2-.82-1.34-.84-2.17-.69a5.79,5.79,0,0,1-.44-1.67c-.15-.56-.6-1.15-1.18-1.08s-.87.68-1.4.8-1.16-.4-1.64-.81-1.34-.67-1.67-.12c-.2.32-.08.77-.29,1.09-.36.55-1.22.21-1.75-.18s-1.37-.75-1.75-.21a2.27,2.27,0,0,0-.2.57c-.26.73-1,1.09-1.65,1.55s-1.09,1.39-.58,2c.26.28.71.39.83.75s-.29.84-.65,1.15c-.6.51-.71,2,.08,2.45.33.18.82.23.9.6s-.26.58-.48.84a1.57,1.57,0,0,0,.48,2.34c.19.09.43.17.5.37a.75.75,0,0,1,0,.44,2.45,2.45,0,0,0-.07.85.3.3,0,0,0,.35.34c1.15.05,1.7-.36,2.4.64a.72.72,0,0,0,.24.25.65.65,0,0,0,.31.08c.79.07,1.3-.42,2-.52,1-.12,1.21.39,2.09.81C91.48,327.36,92.15,327,92.41,326Z" style="fill: rgb(64, 123, 255); transform-origin: 88.9504px 318.631px;" id="el652m7p48fia" class="animable"></path><path d="M99.26,330.63a4.74,4.74,0,0,0,.12-.82c.1-1.7,1.72-1.43,3.1-1.66,1.08-.18-1.78-2.9.4-3.77a1.93,1.93,0,0,0,1-.73,1.23,1.23,0,0,0-.47-1.51,2.92,2.92,0,0,0-1.65-.41c-.35-.43-.06-1.08.28-1.52s.76-.94.63-1.48c-.19-.82-1.34-.85-2.16-.69a5.81,5.81,0,0,1-.45-1.67c-.15-.57-.6-1.16-1.17-1.09s-.88.68-1.41.81-1.16-.4-1.64-.81-1.34-.67-1.67-.13c-.2.32-.08.78-.29,1.09-.36.56-1.22.21-1.75-.18s-1.37-.74-1.75-.2a2.27,2.27,0,0,0-.2.57c-.25.72-1,1.08-1.65,1.55s-1.09,1.39-.57,1.95c.25.28.7.4.82.75s-.29.85-.65,1.16c-.6.51-.71,2,.08,2.45.33.17.82.23.9.6s-.26.58-.48.83a1.58,1.58,0,0,0,.48,2.35c.2.09.43.17.5.36a.71.71,0,0,1-.05.45,2.41,2.41,0,0,0-.07.85.4.4,0,0,0,.1.26.37.37,0,0,0,.25.07c1.15.06,1.7-.35,2.4.65a1,1,0,0,0,.24.25.79.79,0,0,0,.31.08c.79.06,1.31-.43,2-.52,1-.13,1.21.39,2.09.8C98.33,332,99,331.57,99.26,330.63Z" style="fill: rgb(64, 123, 255); transform-origin: 95.8121px 323.248px;" id="elecp6c9joj0c" class="animable"></path><path d="M97.18,336.46s-2.87,4.05-3.85,5.34-5.93,9.28-6.6,14.58l-.21,1.47c2.12,14,1.79,39.69,1.71,44.08H81.5c-.06-4.95-.63-50.23-.84-51.62s-3-7-7.39-9.32-8.1-9.86-8.1-9.86h1.38a24.81,24.81,0,0,0,6.23,7.21,14.4,14.4,0,0,0,1.64,1,23.26,23.26,0,0,1,1.46-8.18l.74.69a19.53,19.53,0,0,0-.57,8.31,14.89,14.89,0,0,1,3.78,2.52c3.79-4.93,5.93-16.2,5.93-16.2l1,.53a57.77,57.77,0,0,1-1.26,6.91A115,115,0,0,1,81.7,344.8a25.54,25.54,0,0,1,2.86,5.38,2.61,2.61,0,0,1,.37-.44C87.4,347.51,92,337,92,337c1.13-2.46-.59-8.9-.59-8.9h1.3l.58,5.64,3.26-3.56.59.49-3.46,4.45-1.78,5.63,4.65-5.14Z" style="fill: rgb(38, 50, 56); transform-origin: 81.175px 364.205px;" id="elzhriolsxbp" class="animable"></path><path d="M79.41,401.93h22.15a2.09,2.09,0,0,0-1.38-2.46c-1.07-.22-2.16-2.11-2.21-3.32s-2-4.92-5-2.63-2.1.34-4.29-.31-3.56,1.21-2.6,2.6a2.7,2.7,0,0,0-3.1,1.5,3.46,3.46,0,0,0,0,3.32S80.2,400.55,79.41,401.93Z" style="fill: rgb(64, 123, 255); transform-origin: 90.5124px 397.359px;" id="elaq3ycs5jnhb" class="animable"></path></g><g id="freepik--hospital-building--inject-67" class="animable animator-active" style="transform-origin: 221.69px 292.96px;"><path d="M210.57,194.09a.38.38,0,0,1-.38-.37v-6.55L203.38,194a.37.37,0,0,1-.53-.53L210.3,186a.38.38,0,0,1,.64.27v7.45A.38.38,0,0,1,210.57,194.09Z" style="fill: rgb(38, 50, 56); transform-origin: 206.841px 190.003px;" id="el0lz226pi35d" class="animable"></path><path d="M219.2,194.09a.38.38,0,0,1-.37-.37v-6.55L212,194a.37.37,0,0,1-.53-.53l7.45-7.45a.38.38,0,0,1,.64.27v7.45A.38.38,0,0,1,219.2,194.09Z" style="fill: rgb(38, 50, 56); transform-origin: 215.46px 190.013px;" id="elggxok3ubquv" class="animable"></path><path d="M227.84,194.09a.37.37,0,0,1-.37-.37v-6.55L220.66,194a.37.37,0,0,1-.53-.53l7.45-7.45a.35.35,0,0,1,.4-.08.38.38,0,0,1,.24.35v7.45A.38.38,0,0,1,227.84,194.09Z" style="fill: rgb(38, 50, 56); transform-origin: 224.12px 190.009px;" id="elgghl9dykhos" class="animable"></path><path d="M233.48,194.09a.38.38,0,0,1-.38-.37v-6.55L226.29,194a.37.37,0,0,1-.53-.53l7.45-7.45a.38.38,0,0,1,.64.27v7.45A.38.38,0,0,1,233.48,194.09Z" style="fill: rgb(38, 50, 56); transform-origin: 229.75px 190.013px;" id="elpkbu7nxwq6f" class="animable"></path><path d="M245.12,194.09a.38.38,0,0,1-.38-.37v-6.55L237.93,194a.37.37,0,0,1-.53-.53l7.45-7.45a.38.38,0,0,1,.64.27v7.45A.38.38,0,0,1,245.12,194.09Z" style="fill: rgb(38, 50, 56); transform-origin: 241.39px 190.013px;" id="elekr4z7ykvp" class="animable"></path><path d="M253.75,194.09a.38.38,0,0,1-.37-.37v-6.55L246.57,194a.37.37,0,0,1-.53-.53l7.45-7.45a.38.38,0,0,1,.64.27v7.45A.38.38,0,0,1,253.75,194.09Z" style="fill: rgb(38, 50, 56); transform-origin: 250.03px 190.013px;" id="eljn2y8cl01e" class="animable"></path><path d="M267.39,194.09a.38.38,0,0,1-.37-.37v-6.55L260.21,194a.37.37,0,0,1-.53-.53l7.45-7.45a.38.38,0,0,1,.64.27v7.45A.38.38,0,0,1,267.39,194.09Z" style="fill: rgb(38, 50, 56); transform-origin: 263.671px 190.013px;" id="elpcxmbw86qia" class="animable"></path><path d="M276,194.09a.37.37,0,0,1-.37-.37v-6.55L268.85,194a.37.37,0,0,1-.53-.53l7.45-7.45a.35.35,0,0,1,.4-.08.38.38,0,0,1,.24.35v7.45A.38.38,0,0,1,276,194.09Z" style="fill: rgb(38, 50, 56); transform-origin: 272.311px 190.008px;" id="elyz3vmnh4vf" class="animable"></path><path d="M282.67,194.09a.38.38,0,0,1-.38-.37v-6.55L275.48,194a.37.37,0,0,1-.53,0,.39.39,0,0,1,0-.53L282.4,186a.38.38,0,0,1,.64.27v7.45A.38.38,0,0,1,282.67,194.09Z" style="fill: rgb(38, 50, 56); transform-origin: 278.943px 190.004px;" id="elmkx7uum376s" class="animable"></path><path d="M294.31,194.09a.38.38,0,0,1-.38-.37v-6.55L287.12,194a.37.37,0,0,1-.53-.53L294,186a.38.38,0,0,1,.64.27v7.45A.38.38,0,0,1,294.31,194.09Z" style="fill: rgb(38, 50, 56); transform-origin: 290.561px 190.003px;" id="el89aqg2blnzh" class="animable"></path><path d="M298.94,194.09a.37.37,0,0,1-.37-.37v-6.55L291.76,194a.37.37,0,0,1-.53-.53l7.45-7.45a.35.35,0,0,1,.4-.08.37.37,0,0,1,.24.35v7.45A.38.38,0,0,1,298.94,194.09Z" style="fill: rgb(38, 50, 56); transform-origin: 295.221px 190.008px;" id="elpxcabgn8o3q" class="animable"></path><path d="M306,194.09a.38.38,0,0,1-.38-.37v-6.55L298.76,194a.37.37,0,0,1-.53-.53l7.45-7.45a.38.38,0,0,1,.64.27v7.45A.38.38,0,0,1,306,194.09Z" style="fill: rgb(38, 50, 56); transform-origin: 302.221px 190.013px;" id="elf6jg9x7055p" class="animable"></path><rect x="328.02" y="182.16" width="24.29" height="14.09" style="fill: rgb(38, 50, 56); transform-origin: 340.165px 189.205px;" id="elifq692845dg" class="animable"></rect><g id="el48yl6h8wbz6"><rect x="328.02" y="182.16" width="24.29" height="14.09" style="fill: rgb(255, 255, 255); isolation: isolate; opacity: 0.4; transform-origin: 340.165px 189.205px;" class="animable"></rect></g><g id="elmjllzjgo81"><rect x="338.95" y="182.16" width="13.36" height="14.09" style="fill: rgb(255, 255, 255); isolation: isolate; opacity: 0.4; transform-origin: 345.63px 189.205px;" class="animable"></rect></g><rect x="302.19" y="182.16" width="24.29" height="14.09" style="fill: rgb(38, 50, 56); transform-origin: 314.335px 189.205px;" id="el0wqadwxfbjs" class="animable"></rect><g id="el0aubdjrejjzj"><rect x="302.19" y="182.16" width="24.29" height="14.09" style="fill: rgb(255, 255, 255); isolation: isolate; opacity: 0.4; transform-origin: 314.335px 189.205px;" class="animable"></rect></g><g id="elb008wurun"><rect x="313.11" y="182.16" width="13.36" height="14.09" style="fill: rgb(255, 255, 255); isolation: isolate; opacity: 0.4; transform-origin: 319.79px 189.205px;" class="animable"></rect></g><rect x="97.62" y="182.16" width="102.59" height="14.09" style="fill: rgb(38, 50, 56); transform-origin: 148.915px 189.205px;" id="eloxbofx9s92o" class="animable"></rect><g id="el1qc3wpylf84"><rect x="97.62" y="182.16" width="102.59" height="14.09" style="fill: rgb(255, 255, 255); isolation: isolate; opacity: 0.4; transform-origin: 148.915px 189.205px;" class="animable"></rect></g><g id="el41a0a7bqm01"><rect x="143.78" y="182.16" width="56.44" height="14.09" style="fill: rgb(255, 255, 255); isolation: isolate; opacity: 0.4; transform-origin: 172px 189.205px;" class="animable"></rect></g><rect x="90.76" y="367.49" width="267.43" height="44.84" style="fill: rgb(38, 50, 56); transform-origin: 224.475px 389.91px;" id="el1desg0j59cs" class="animable"></rect><g id="elnr19ks6c11l"><rect x="90.76" y="367.49" width="267.43" height="44.84" style="fill: rgb(255, 255, 255); isolation: isolate; opacity: 0.3; transform-origin: 224.475px 389.91px;" class="animable"></rect></g><g id="el7j6239d7bh3"><rect x="146.54" y="367.49" width="211.65" height="44.84" style="fill: rgb(255, 255, 255); isolation: isolate; opacity: 0.3; transform-origin: 252.365px 389.91px;" class="animable"></rect></g><g id="elz88631ja54"><rect x="221.5" y="374.14" width="66.43" height="38.19" style="opacity: 0.2; transform-origin: 254.715px 393.235px;" class="animable"></rect></g><rect x="202.91" y="378.57" width="12.13" height="30.9" style="fill: rgb(64, 123, 255); transform-origin: 208.975px 394.02px;" id="elk5atfxls98h" class="animable"></rect><rect x="186.91" y="378.57" width="12.13" height="30.9" style="fill: rgb(64, 123, 255); transform-origin: 192.975px 394.02px;" id="eldqym44xvs0g" class="animable"></rect><rect x="170.91" y="378.57" width="12.13" height="30.9" style="fill: rgb(64, 123, 255); transform-origin: 176.975px 394.02px;" id="elk5exu3l36or" class="animable"></rect><rect x="154.91" y="378.57" width="12.13" height="30.9" style="fill: rgb(64, 123, 255); transform-origin: 160.975px 394.02px;" id="elaikuyq34z5c" class="animable"></rect><rect x="340.99" y="378.57" width="12.13" height="30.9" style="fill: rgb(64, 123, 255); transform-origin: 347.055px 394.02px;" id="elqxfayp9pnwm" class="animable"></rect><rect x="324.99" y="378.57" width="12.13" height="30.9" style="fill: rgb(64, 123, 255); transform-origin: 331.055px 394.02px;" id="eldqaxgbh1c8s" class="animable"></rect><rect x="308.99" y="378.57" width="12.13" height="30.9" style="fill: rgb(64, 123, 255); transform-origin: 315.055px 394.02px;" id="ell6hvmarid4i" class="animable"></rect><rect x="292.99" y="378.57" width="12.13" height="30.9" style="fill: rgb(64, 123, 255); transform-origin: 299.055px 394.02px;" id="elgwtd19kuq75" class="animable"></rect><rect x="133.23" y="378.57" width="9.77" height="30.9" style="fill: rgb(64, 123, 255); transform-origin: 138.115px 394.02px;" id="elbzu5diu8wjm" class="animable"></rect><rect x="120.34" y="378.57" width="9.77" height="30.9" style="fill: rgb(64, 123, 255); transform-origin: 125.225px 394.02px;" id="eln67hhr1048c" class="animable"></rect><rect x="107.46" y="378.57" width="9.77" height="30.9" style="fill: rgb(64, 123, 255); transform-origin: 112.345px 394.02px;" id="el6r2an75bu5k" class="animable"></rect><rect x="94.58" y="378.57" width="9.77" height="30.9" style="fill: rgb(64, 123, 255); transform-origin: 99.465px 394.02px;" id="el5hulxz9ihfo" class="animable"></rect><g id="elslxtgp5lrv9"><g style="isolation: isolate; opacity: 0.5; transform-origin: 184.975px 394.02px;" class="animable"><rect x="202.91" y="378.57" width="12.13" height="30.9" style="fill: rgb(255, 255, 255); transform-origin: 208.975px 394.02px;" id="el888arybfkcy" class="animable"></rect><rect x="186.91" y="378.57" width="12.13" height="30.9" style="fill: rgb(255, 255, 255); transform-origin: 192.975px 394.02px;" id="el4abvkpy6mes" class="animable"></rect><rect x="170.91" y="378.57" width="12.13" height="30.9" style="fill: rgb(255, 255, 255); transform-origin: 176.975px 394.02px;" id="elfcipowc5iz6" class="animable"></rect><rect x="154.91" y="378.57" width="12.13" height="30.9" style="fill: rgb(255, 255, 255); transform-origin: 160.975px 394.02px;" id="elkuojvgd4kjf" class="animable"></rect></g></g><g id="elz0x0bgok7ma"><g style="isolation: isolate; opacity: 0.5; transform-origin: 323.055px 394.02px;" class="animable"><rect x="340.99" y="378.57" width="12.13" height="30.9" style="fill: rgb(255, 255, 255); transform-origin: 347.055px 394.02px;" id="elynqg64xr13" class="animable"></rect><rect x="324.99" y="378.57" width="12.13" height="30.9" style="fill: rgb(255, 255, 255); transform-origin: 331.055px 394.02px;" id="elqummoqns4sa" class="animable"></rect><rect x="308.99" y="378.57" width="12.13" height="30.9" style="fill: rgb(255, 255, 255); transform-origin: 315.055px 394.02px;" id="elp2v3jct7r4" class="animable"></rect><rect x="292.99" y="378.57" width="12.13" height="30.9" style="fill: rgb(255, 255, 255); transform-origin: 299.055px 394.02px;" id="ella8nyh4tth" class="animable"></rect></g></g><g id="eltp02zedvtcn"><g style="isolation: isolate; opacity: 0.5; transform-origin: 118.79px 394.02px;" class="animable"><rect x="133.23" y="378.57" width="9.77" height="30.9" style="fill: rgb(255, 255, 255); transform-origin: 138.115px 394.02px;" id="elyet9jns54gc" class="animable"></rect><rect x="120.34" y="378.57" width="9.77" height="30.9" style="fill: rgb(255, 255, 255); transform-origin: 125.225px 394.02px;" id="elzsan3wmme6m" class="animable"></rect><rect x="107.46" y="378.57" width="9.77" height="30.9" style="fill: rgb(255, 255, 255); transform-origin: 112.345px 394.02px;" id="elc74ukfyqtbe" class="animable"></rect><rect x="94.58" y="378.57" width="9.77" height="30.9" style="fill: rgb(255, 255, 255); transform-origin: 99.465px 394.02px;" id="elka1ek9ym4y" class="animable"></rect></g></g><g id="eln77i4hpusa"><g style="isolation: isolate; opacity: 0.5; transform-origin: 252.79px 394.02px;" class="animable"><rect x="272.01" y="378.57" width="12.07" height="30.9" style="fill: rgb(255, 255, 255); transform-origin: 278.045px 394.02px;" id="eltcwd2sbj4mq" class="animable"></rect><rect x="256.09" y="378.57" width="12.07" height="30.9" style="fill: rgb(255, 255, 255); transform-origin: 262.125px 394.02px;" id="elpq04in2nkpd" class="animable"></rect><rect x="221.5" y="378.57" width="30.74" height="30.9" style="fill: rgb(255, 255, 255); transform-origin: 236.87px 394.02px;" id="el8ksu95lfmaj" class="animable"></rect></g></g><g id="elddfzi8y43rf"><polygon points="287.92 374.14 264.76 412.33 221.5 412.33 221.5 374.14 287.92 374.14" style="opacity: 0.1; transform-origin: 254.71px 393.235px;" class="animable"></polygon></g><rect x="87.55" y="196.26" width="57.28" height="170.01" style="fill: rgb(64, 123, 255); transform-origin: 116.19px 281.265px;" id="eljecxledls7r" class="animable"></rect><g id="elujh8cnjwdm"><rect x="87.55" y="196.26" width="57.28" height="170.01" style="fill: rgb(255, 255, 255); isolation: isolate; opacity: 0.4; transform-origin: 116.19px 281.265px;" class="animable"></rect></g><g id="elne57s2hhzx"><rect x="94.22" y="196.26" width="1" height="170.01" style="opacity: 0.1; transform-origin: 94.72px 281.265px;" class="animable"></rect></g><g id="el0vkkudq2diz"><rect x="102.52" y="196.26" width="1" height="170.01" style="opacity: 0.1; transform-origin: 103.02px 281.265px;" class="animable"></rect></g><g id="elyuokvgn2k3f"><rect x="110.82" y="196.26" width="1" height="170.01" style="opacity: 0.1; transform-origin: 111.32px 281.265px;" class="animable"></rect></g><g id="eld11uk75r88s"><rect x="119.12" y="196.26" width="1" height="170.01" style="opacity: 0.1; transform-origin: 119.62px 281.265px;" class="animable"></rect></g><g id="elxqekl084m7"><rect x="127.41" y="196.26" width="1" height="170.01" style="opacity: 0.1; transform-origin: 127.91px 281.265px;" class="animable"></rect></g><g id="el1si0tysodqy"><rect x="135.71" y="196.26" width="1" height="170.01" style="opacity: 0.1; transform-origin: 136.21px 281.265px;" class="animable"></rect></g><g id="elu5h74597oue"><g style="opacity: 0.1; transform-origin: 108.325px 229.75px;" class="animable"><polygon points="113.96 196.25 87.55 238.84 87.55 218.22 101.17 196.25 113.96 196.25" style="fill: rgb(255, 255, 255); transform-origin: 100.755px 217.545px;" id="el9b0708c1l0p" class="animable"></polygon><polygon points="129.1 196.25 87.55 263.25 87.55 257.24 125.37 196.25 129.1 196.25" style="fill: rgb(255, 255, 255); transform-origin: 108.325px 229.75px;" id="elv3gvezstn2p" class="animable"></polygon></g></g><g id="elfno5bkgvekf"><g style="opacity: 0.1; transform-origin: 116.19px 306.23px;" class="animable"><polygon points="144.83 246.2 144.83 266.82 87.55 359.2 87.55 338.58 144.83 246.2" style="fill: rgb(255, 255, 255); transform-origin: 116.19px 302.7px;" id="elllwrbsa0e4" class="animable"></polygon><polygon points="144.83 285.23 144.83 291.25 98.32 366.26 94.58 366.26 144.83 285.23" style="fill: rgb(255, 255, 255); transform-origin: 119.705px 325.745px;" id="eluq9swk35yl" class="animable"></polygon></g></g><rect x="141.48" y="189.61" width="220.92" height="184.54" style="fill: rgb(64, 123, 255); transform-origin: 251.94px 281.88px;" id="elv8oob28rcxp" class="animable"></rect><g id="elcwe83dm8z58"><rect x="80.98" y="360.84" width="60.5" height="13.3" style="fill: rgb(64, 123, 255); transform-origin: 111.23px 367.49px; transform: rotate(180deg);" class="animable"></rect></g><g id="el2ndhj2vgjuo"><rect x="80.98" y="189.61" width="60.5" height="13.3" style="fill: rgb(64, 123, 255); transform-origin: 111.23px 196.26px; transform: rotate(180deg);" class="animable"></rect></g><g id="el7sl1mxft1uq"><rect x="80.98" y="223.85" width="60.5" height="13.3" style="fill: rgb(64, 123, 255); transform-origin: 111.23px 230.5px; transform: rotate(180deg);" class="animable"></rect></g><g id="el2n56bfojg7m"><rect x="80.98" y="258.1" width="60.5" height="13.3" style="fill: rgb(64, 123, 255); transform-origin: 111.23px 264.75px; transform: rotate(180deg);" class="animable"></rect></g><g id="eletnpbnhr9w"><rect x="80.98" y="292.35" width="60.5" height="13.3" style="fill: rgb(64, 123, 255); transform-origin: 111.23px 299px; transform: rotate(180deg);" class="animable"></rect></g><g id="elhwbg7ziqr9k"><rect x="80.98" y="326.59" width="60.5" height="13.3" style="fill: rgb(64, 123, 255); transform-origin: 111.23px 333.24px; transform: rotate(180deg);" class="animable"></rect></g><g id="el41czhi2oq0x"><g style="isolation: isolate; opacity: 0.6; transform-origin: 111.23px 281.875px;" class="animable"><g id="elvvd38gjrt8r"><rect x="80.98" y="360.84" width="60.5" height="13.3" style="fill: rgb(255, 255, 255); transform-origin: 111.23px 367.49px; transform: rotate(180deg);" class="animable"></rect></g><g id="elqxik7wrmc9"><rect x="80.98" y="189.61" width="60.5" height="13.3" style="fill: rgb(255, 255, 255); transform-origin: 111.23px 196.26px; transform: rotate(180deg);" class="animable"></rect></g><g id="elvhav2xvpock"><rect x="80.98" y="223.85" width="60.5" height="13.3" style="fill: rgb(255, 255, 255); transform-origin: 111.23px 230.5px; transform: rotate(180deg);" class="animable"></rect></g><g id="el7wty0k6kuss"><rect x="80.98" y="258.1" width="60.5" height="13.3" style="fill: rgb(255, 255, 255); transform-origin: 111.23px 264.75px; transform: rotate(180deg);" class="animable"></rect></g><g id="eldfuplsuguht"><rect x="80.98" y="292.35" width="60.5" height="13.3" style="fill: rgb(255, 255, 255); transform-origin: 111.23px 299px; transform: rotate(180deg);" class="animable"></rect></g><g id="elduy04irx8sj"><rect x="80.98" y="326.59" width="60.5" height="13.3" style="fill: rgb(255, 255, 255); transform-origin: 111.23px 333.24px; transform: rotate(180deg);" class="animable"></rect></g></g></g><g id="eljxnaqrhh2re"><rect x="141.48" y="189.61" width="220.92" height="184.54" style="fill: rgb(255, 255, 255); isolation: isolate; opacity: 0.6; transform-origin: 251.94px 281.88px;" class="animable"></rect></g><g id="eloa8iqzmrchc"><rect x="148.59" y="189.61" width="213.81" height="184.54" style="fill: rgb(255, 255, 255); isolation: isolate; opacity: 0.4; transform-origin: 255.495px 281.88px;" class="animable"></rect></g><rect x="221.5" y="189.61" width="68.04" height="184.54" style="fill: rgb(64, 123, 255); transform-origin: 255.52px 281.88px;" id="elc6v9llrt775" class="animable"></rect><rect x="295" y="202.9" width="60.13" height="157.94" style="fill: rgb(64, 123, 255); transform-origin: 325.065px 281.87px;" id="eli77ju2bazg" class="animable"></rect><g id="elmbpvobw06w9"><rect x="295" y="202.9" width="60.13" height="157.94" style="fill: rgb(255, 255, 255); isolation: isolate; opacity: 0.5; transform-origin: 325.065px 281.87px;" class="animable"></rect></g><g id="el8st0b5qqhtf"><g style="isolation: isolate; opacity: 0.1; transform-origin: 325.065px 281.875px;" class="animable"><rect x="303.54" y="202.91" width="1" height="157.93" id="elagwxbvaykar" class="animable" style="transform-origin: 304.04px 281.875px;"></rect><rect x="314.05" y="202.91" width="1" height="157.93" id="eldjee8nc73lh" class="animable" style="transform-origin: 314.55px 281.875px;"></rect><rect x="324.56" y="202.91" width="1" height="157.93" id="elylexquvt06i" class="animable" style="transform-origin: 325.06px 281.875px;"></rect><rect x="335.07" y="202.91" width="1" height="157.93" id="elu1p8ltpze07" class="animable" style="transform-origin: 335.57px 281.875px;"></rect><rect x="345.58" y="202.91" width="1" height="157.93" id="elx1xnbg65zy" class="animable" style="transform-origin: 346.08px 281.875px;"></rect><path d="M355.63,361.34H294.5V202.41h61.13Zm-60.13-1h59.13V203.41H295.5Z" id="elb2sasz09ksr" class="animable" style="transform-origin: 325.065px 281.875px;"></path><rect x="295" y="223.35" width="60.13" height="1" id="ell2i65yik2l" class="animable" style="transform-origin: 325.065px 223.85px;"></rect><rect x="295" y="236.65" width="60.13" height="1" id="elrgpl8uh08ag" class="animable" style="transform-origin: 325.065px 237.15px;"></rect><rect x="295" y="257.6" width="60.13" height="1" id="elulg0bovmnva" class="animable" style="transform-origin: 325.065px 258.1px;"></rect><rect x="295" y="270.9" width="60.13" height="1" id="ell2d58he6q4h" class="animable" style="transform-origin: 325.065px 271.4px;"></rect><rect x="295" y="291.85" width="60.13" height="1" id="eley0lgp5n4ob" class="animable" style="transform-origin: 325.065px 292.35px;"></rect><rect x="295" y="305.15" width="60.13" height="1" id="elglgf8537ydk" class="animable" style="transform-origin: 325.065px 305.65px;"></rect><rect x="295" y="326.09" width="60.13" height="1" id="eli8xdklg16o" class="animable" style="transform-origin: 325.065px 326.59px;"></rect><rect x="295" y="339.39" width="60.13" height="1" id="elb6irpyangm" class="animable" style="transform-origin: 325.065px 339.89px;"></rect></g></g><g id="elksmoyts7xr"><g style="opacity: 0.1; transform-origin: 325.065px 299.45px;" class="animable"><polygon points="355.13 238.06 355.13 258.68 295 355.65 295 335.02 355.13 238.06" style="fill: rgb(255, 255, 255); transform-origin: 325.065px 296.855px;" id="elydck3kkujo" class="animable"></polygon><polygon points="355.13 277.08 355.13 283.1 306.93 360.84 303.19 360.84 355.13 277.08" style="fill: rgb(255, 255, 255); transform-origin: 329.16px 318.96px;" id="elk5bxmawagf" class="animable"></polygon></g></g><g id="ellaxqu71eb3"><g style="opacity: 0.1; transform-origin: 342.08px 339.79px;" class="animable"><polygon points="355.13 318.74 355.13 339.36 341.81 360.84 329.03 360.84 355.13 318.74" style="fill: rgb(255, 255, 255); transform-origin: 342.08px 339.79px;" id="el3977q65pk5e" class="animable"></polygon><polygon points="355.13 357.76 355.13 360.84 353.22 360.84 355.13 357.76" style="fill: rgb(255, 255, 255); transform-origin: 354.175px 359.3px;" id="el7qagq7kz48f" class="animable"></polygon></g></g><rect x="155.91" y="202.9" width="60.13" height="157.94" style="fill: rgb(64, 123, 255); transform-origin: 185.975px 281.87px;" id="elouled8i9fw7" class="animable"></rect><g id="elnnk36ky5ldi"><rect x="155.91" y="202.9" width="60.13" height="157.94" style="fill: rgb(255, 255, 255); isolation: isolate; opacity: 0.5; transform-origin: 185.975px 281.87px;" class="animable"></rect></g><g id="elriku4me4fxm"><g style="isolation: isolate; opacity: 0.1; transform-origin: 185.975px 281.875px;" class="animable"><rect x="164.46" y="202.91" width="1" height="157.93" id="elrd03c6gaox" class="animable" style="transform-origin: 164.96px 281.875px;"></rect><rect x="174.96" y="202.91" width="1" height="157.93" id="elt9d9whja7qh" class="animable" style="transform-origin: 175.46px 281.875px;"></rect><rect x="185.47" y="202.91" width="1" height="157.93" id="elekinsm54sto" class="animable" style="transform-origin: 185.97px 281.875px;"></rect><rect x="195.98" y="202.91" width="1" height="157.93" id="elp1cqxt81uve" class="animable" style="transform-origin: 196.48px 281.875px;"></rect><rect x="206.49" y="202.91" width="1" height="157.93" id="elz8tnpnovn2o" class="animable" style="transform-origin: 206.99px 281.875px;"></rect><path d="M216.54,361.34H155.41V202.41h61.13Zm-60.13-1h59.13V203.41H156.41Z" id="elsyykmoh37qf" class="animable" style="transform-origin: 185.975px 281.875px;"></path><rect x="155.91" y="223.35" width="60.13" height="1" id="el9vjxm1syzwa" class="animable" style="transform-origin: 185.975px 223.85px;"></rect><rect x="155.91" y="236.65" width="60.13" height="1" id="eldsrsj15dxda" class="animable" style="transform-origin: 185.975px 237.15px;"></rect><rect x="155.91" y="257.6" width="60.13" height="1" id="elqc3olbyv50f" class="animable" style="transform-origin: 185.975px 258.1px;"></rect><rect x="155.91" y="270.9" width="60.13" height="1" id="elqahy01w1nm" class="animable" style="transform-origin: 185.975px 271.4px;"></rect><rect x="155.91" y="291.85" width="60.13" height="1" id="el54gtvcnblok" class="animable" style="transform-origin: 185.975px 292.35px;"></rect><rect x="155.91" y="305.15" width="60.13" height="1" id="elghphmgtdtns" class="animable" style="transform-origin: 185.975px 305.65px;"></rect><rect x="155.91" y="326.09" width="60.13" height="1" id="el5n88k5oaiu" class="animable" style="transform-origin: 185.975px 326.59px;"></rect><rect x="155.91" y="339.39" width="60.13" height="1" id="el2kja4gcs13f" class="animable" style="transform-origin: 185.975px 339.89px;"></rect></g></g><g id="eljxgi9u0tipl"><g style="opacity: 0.1; transform-origin: 177.45px 237.635px;" class="animable"><polygon points="183.84 202.9 155.91 247.94 155.91 227.33 171.06 202.9 183.84 202.9" style="fill: rgb(255, 255, 255); transform-origin: 169.875px 225.42px;" id="el9cu6xtuawrk" class="animable"></polygon><polygon points="198.99 202.9 155.91 272.37 155.91 266.35 195.25 202.9 198.99 202.9" style="fill: rgb(255, 255, 255); transform-origin: 177.45px 237.635px;" id="elit1zbu55fjp" class="animable"></polygon></g></g><g id="el81rmcxw6g7a"><g style="opacity: 0.1; transform-origin: 185.975px 305.785px;" class="animable"><polygon points="216.04 250.73 216.04 271.34 160.55 360.84 155.91 360.84 155.91 347.69 216.04 250.73" style="fill: rgb(255, 255, 255); transform-origin: 185.975px 305.785px;" id="el7sqwvwcsivv" class="animable"></polygon><polygon points="216.04 289.74 216.04 295.77 175.69 360.84 171.95 360.84 216.04 289.74" style="fill: rgb(255, 255, 255); transform-origin: 193.995px 325.29px;" id="el2zulv9zsg8m" class="animable"></polygon></g></g><g id="elz0r591lt9c"><rect x="221.5" y="189.61" width="68.04" height="184.54" style="fill: rgb(255, 255, 255); opacity: 0.7; transform-origin: 255.52px 281.88px;" class="animable"></rect></g><polygon points="323.12 366.26 323.12 366.26 320.11 366.26 252.73 366.26 252.73 366.26 249.72 366.26 221.5 366.26 221.5 374.14 249.72 374.14 249.72 412.33 252.73 412.33 254.43 412.33 257.44 412.33 257.44 374.14 315.4 374.14 315.4 412.33 318.41 412.33 320.11 412.33 323.12 412.33 323.12 374.14 323.12 374.14 323.12 366.26" style="fill: rgb(64, 123, 255); transform-origin: 272.31px 389.295px;" id="eldl5zc67u1k" class="animable"></polygon><g id="elyb4ewab27sq"><polygon points="323.12 366.26 323.12 412.33 318.41 412.33 318.41 374.14 257.44 374.14 257.44 412.33 252.73 412.33 252.73 366.26 323.12 366.26" style="fill: rgb(255, 255, 255); isolation: isolate; opacity: 0.3; transform-origin: 287.925px 389.295px;" class="animable"></polygon></g><rect x="228.76" y="258.1" width="13.71" height="102.74" style="fill: rgb(64, 123, 255); transform-origin: 235.615px 309.47px;" id="elwfm40z0ys2" class="animable"></rect><rect x="248.77" y="258.1" width="13.71" height="102.74" style="fill: rgb(64, 123, 255); transform-origin: 255.625px 309.47px;" id="elyjqekquyoj" class="animable"></rect><rect x="268.78" y="258.1" width="13.71" height="102.74" style="fill: rgb(64, 123, 255); transform-origin: 275.635px 309.47px;" id="elgg9kta2jdh7" class="animable"></rect><g id="elv6bk01bgd48"><g style="isolation: isolate; opacity: 0.5; transform-origin: 255.625px 309.47px;" class="animable"><rect x="228.76" y="258.1" width="13.71" height="102.74" style="fill: rgb(255, 255, 255); transform-origin: 235.615px 309.47px;" id="el8wlnckrpszj" class="animable"></rect><rect x="248.77" y="258.1" width="13.71" height="102.74" style="fill: rgb(255, 255, 255); transform-origin: 255.625px 309.47px;" id="eluc8gzqtr3g9" class="animable"></rect><rect x="268.78" y="258.1" width="13.71" height="102.74" style="fill: rgb(255, 255, 255); transform-origin: 275.635px 309.47px;" id="el4w90dyyplvj" class="animable"></rect></g></g><polygon points="276.15 218.94 274.14 218.94 262.24 218.94 262.24 205.03 262.24 205.03 260.23 205.03 251.02 205.03 251.02 205.03 249.02 205.03 249.02 218.94 237.11 218.94 237.11 218.94 235.11 218.94 235.11 230.16 237.11 230.16 237.11 230.16 249.02 230.16 249.02 244.07 251.02 244.07 251.02 244.07 260.23 244.07 262.24 244.07 262.24 244.07 262.24 230.16 274.14 230.16 276.15 230.16 276.15 230.16 276.15 218.94 276.15 218.94" style="fill: rgb(64, 123, 255); transform-origin: 255.63px 224.55px;" id="el5599rctjffv" class="animable"></polygon><g id="elplh735ug2j8"><rect x="235.11" y="218.95" width="2.01" height="11.21" style="opacity: 0.3; transform-origin: 236.115px 224.555px;" class="animable"></rect></g><g id="el2d52r69hq7d"><rect x="249.03" y="205.04" width="2" height="13.91" style="opacity: 0.3; transform-origin: 250.03px 211.995px;" class="animable"></rect></g><g id="elh5zeant3mf"><rect x="249.03" y="230.16" width="2" height="13.91" style="opacity: 0.3; transform-origin: 250.03px 237.115px;" class="animable"></rect></g><path d="M230.73,173.6h0l-.45,0-.5,0a6.92,6.92,0,1,0,0,13.82l.5,0,.45,0h0c4.17,0,7.24-2.92,7.24-6.91S234.9,173.6,230.73,173.6Zm-2.2,11.11a5.11,5.11,0,0,1-.68-.41l-.08-.06a4.88,4.88,0,0,1-.53-.48,1.83,1.83,0,0,1-.13-.16,3.66,3.66,0,0,1-.38-.5,4671307209420,4671307209420,0,0,0-.38-.76c-.06-.16-.1-.33-.15-.5s-.08-.24-.1-.37a4.86,4.86,0,0,1-.09-.95h0a4.76,4.76,0,0,1,.09-.94c0-.14.07-.25.1-.38s.09-.33.15-.49a3.38,3.38,0,0,1,.22-.47c.06-.1.1-.2.16-.3a3.57,3.57,0,0,1,.38-.49,1,1,0,0,1,.13-.16,3.43,3.43,0,0,1,.53-.48.24.24,0,0,1,.08-.06,4.29,4.29,0,0,1,.68-.42h0a4.65,4.65,0,0,1,1.68-.46,4.7,4.7,0,0,1,0,9.35,4.87,4.87,0,0,1-1.68-.47Z" style="fill: rgb(64, 123, 255); transform-origin: 230.229px 180.51px;" id="el44tzuhzggdn" class="animable"></path><path d="M242.25,177.5h0a1.86,1.86,0,0,1,0-.34c0-.05,0-.09,0-.14a1.34,1.34,0,0,1,.07-.18.86.86,0,0,1,.1-.16.6.6,0,0,1,.09-.13,1.22,1.22,0,0,1,.15-.17l.11-.09.23-.15.1-.06.31-.14.1,0,.4-.11h.08l.51-.08a7.5,7.5,0,0,1,3.29,1l.17-.42.51.26.33.16h0l.78-1.94a8.47,8.47,0,0,0-4.47-1.19h-.14l-.36,0c-.17,0-.33,0-.5,0-3.69,0-5.41,1.84-5.41,4,0,5,8,3.09,8,6,0,.92-.75,1.61-2.48,1.73h0a9.51,9.51,0,0,1-1.07-.16l-.07,0a6.38,6.38,0,0,1-1-.29l-.11,0a6.14,6.14,0,0,1-.86-.4l-.09,0a5.87,5.87,0,0,1-.76-.5h0l-.08.18-.15.33a4.67,4.67,0,0,1-.77-.51l-.86,1.94a8.64,8.64,0,0,0,5.3,1.61l.37,0,.63,0h0c3.68,0,5.43-1.84,5.43-4C250.22,178.5,242.25,180.36,242.25,177.5Z" style="fill: rgb(64, 123, 255); transform-origin: 244.265px 180.587px;" id="el941lqr0sikm" class="animable"></path><path d="M258.23,173.79H251.7v13.44h3.49v-3.88h3c3.53,0,5.72-1.82,5.72-4.78S261.76,173.79,258.23,173.79Zm-3,7.45v-5.33h1.92c2.19,0,3.32,1,3.32,2.66s-1.13,2.67-3.32,2.67Z" style="fill: rgb(64, 123, 255); transform-origin: 257.805px 180.51px;" id="eledual968c2q" class="animable"></path><path d="M290.06,173.79H286.6l-6.05,13.44h3.58l1.32-3.11h5.72l1.34,3.11h3.61l-6.06-13.44Zm-3.76,8.37,1.23-2.88.78-1.83,2,4.71Z" style="fill: rgb(64, 123, 255); transform-origin: 288.335px 180.51px;" id="el0moxzxnm25oa" class="animable"></path><polygon points="307.36 185.12 306.36 185.12 300.33 185.12 300.33 173.79 300.33 173.79 299.33 173.79 297.83 173.79 297.83 173.79 296.83 173.79 296.83 187.23 297.83 187.23 297.83 187.23 306.36 187.23 307.36 187.23 307.36 187.23 307.36 185.12 307.36 185.12" style="fill: rgb(64, 123, 255); transform-origin: 302.095px 180.51px;" id="elkwv8oidzbvf" class="animable"></polygon><polygon points="219.84 173.79 218.35 173.79 218.35 173.79 217.35 173.79 217.35 179.34 211.4 179.34 211.4 173.79 211.4 173.79 210.4 173.79 208.9 173.79 208.9 173.79 207.9 173.79 207.9 187.23 208.9 187.23 208.9 187.23 210.4 187.23 211.4 187.23 211.4 187.23 211.4 181.47 217.35 181.47 217.35 187.23 218.35 187.23 218.35 187.23 219.84 187.23 220.84 187.23 220.84 187.23 220.84 173.79 220.84 173.79 219.84 173.79" style="fill: rgb(64, 123, 255); transform-origin: 214.37px 180.51px;" id="elvy7ez9anuxm" class="animable"></polygon><polygon points="267.94 173.79 266.44 173.79 266.44 173.79 265.44 173.79 265.44 187.23 266.44 187.23 266.44 187.23 267.94 187.23 268.94 187.23 268.94 187.23 268.94 173.79 268.94 173.79 267.94 173.79" style="fill: rgb(64, 123, 255); transform-origin: 267.19px 180.51px;" id="elyuuqyf84j4k" class="animable"></polygon><polygon points="282.24 175.91 282.24 175.91 282.24 173.79 282.24 173.79 281.24 173.79 270.84 173.79 270.84 173.79 269.84 173.79 269.84 175.91 270.84 175.91 270.84 175.91 274.29 175.91 274.29 187.23 275.3 187.23 275.3 187.23 276.79 187.23 277.79 187.23 277.79 187.23 277.79 175.91 281.24 175.91 282.24 175.91" style="fill: rgb(64, 123, 255); transform-origin: 276.04px 180.51px;" id="elc7fxli787h" class="animable"></polygon><g id="elqn6q6cuag39"><g style="opacity: 0.2; transform-origin: 252.875px 180.53px;" class="animable"><rect x="207.91" y="173.8" width="1" height="13.43" id="elmmb36uji49a" class="animable" style="transform-origin: 208.41px 180.515px;"></rect><rect x="217.35" y="173.8" width="1" height="5.54" id="el7u33rl73bdi" class="animable" style="transform-origin: 217.85px 176.57px;"></rect><rect x="217.35" y="181.47" width="1" height="5.76" id="elcumjskdtj" class="animable" style="transform-origin: 217.85px 184.35px;"></rect><path d="M230.74,175.79a4.76,4.76,0,0,0-2.67.78,4.87,4.87,0,0,1,2.17-.73,4.7,4.7,0,0,1,0,9.35,4.67,4.67,0,0,1-3-1.42,4.66,4.66,0,0,0,3.5,1.47,4.73,4.73,0,0,0,0-9.45Zm-7.24,4.72a6.83,6.83,0,0,1,6.65-6.89l-.41,0a6.92,6.92,0,1,0,0,13.82l.49,0A6.82,6.82,0,0,1,223.5,180.51Z" id="el2heyed7lwwr" class="animable" style="transform-origin: 228.85px 180.53px;"></path><path d="M244.29,175.74a5.78,5.78,0,0,0-.71.16A3.38,3.38,0,0,1,244.29,175.74Z" id="el0x2u7mmdcau" class="animable" style="transform-origin: 243.935px 175.82px;"></path><path d="M239.49,185.81a8.34,8.34,0,0,0,4.67,1.59l-.37,0a8.66,8.66,0,0,1-5.3-1.61l.87-1.94a4.93,4.93,0,0,0,.77.52Z" id="els3mb9yj3efb" class="animable" style="transform-origin: 241.325px 185.627px;"></path><path d="M247.77,183.6c0,1-.89,1.75-3,1.75l-.48,0c1.71-.12,2.46-.82,2.46-1.73,0-2.89-8-1-8-6,0-2.17,1.73-4,5.41-4l.25,0c-3.16.25-4.66,2-4.66,4C239.78,182.61,247.77,180.71,247.77,183.6Z" id="el0tsaw5buc4jg" class="animable" style="transform-origin: 243.26px 179.485px;"></path><path d="M248,176.32l-.16.41a7.52,7.52,0,0,0-3.29-1,5.22,5.22,0,0,1,.58,0A7.29,7.29,0,0,1,248,176.32Z" id="eltnrr7cu1xfh" class="animable" style="transform-origin: 246.275px 176.226px;"></path><path d="M248.47,176.51l-.43-.19h0Z" id="el9d9niemgwqj" class="animable" style="transform-origin: 248.255px 176.415px;"></path><path d="M258.11,175.91h-1c2.19,0,3.32,1,3.32,2.67s-1.13,2.66-3.32,2.66h1c2.19,0,3.33-1,3.33-2.66S260.3,175.91,258.11,175.91Zm-6.41-2.11v13.43h1V173.8Z" id="el00u5c4n16xm8h" class="animable" style="transform-origin: 256.57px 180.515px;"></path><rect x="265.45" y="173.8" width="1" height="13.43" id="elupaw66forjt" class="animable" style="transform-origin: 265.95px 180.515px;"></rect><rect x="269.84" y="173.8" width="1" height="2.11" id="el5e3r4hmoim" class="animable" style="transform-origin: 270.34px 174.855px;"></rect><rect x="274.3" y="175.91" width="1" height="11.32" id="elzsd1mylu3j" class="animable" style="transform-origin: 274.8px 181.57px;"></rect><path d="M286.6,173.8l-6,13.43h1l6-13.43Zm2.21,2.49-2.51,5.88,2-4.71,2,4.71h1Zm3.36,7.83h-1l1.35,3.11h1Z" id="elf1h68csoe0b" class="animable" style="transform-origin: 287.06px 180.515px;"></path><rect x="296.84" y="173.8" width="1" height="13.43" id="elgcgiqqgzmgr" class="animable" style="transform-origin: 297.34px 180.515px;"></rect><g id="elgo3990y2i0o"><g style="isolation: isolate; opacity: 0.4; transform-origin: 237.67px 173.62px;" class="animable"><path d="M230.15,173.62h.09l.25,0Z" id="el2p4z046uhyr" class="animable" style="transform-origin: 230.32px 173.62px;"></path><path d="M244.48,173.62l.21,0c.17,0,.33,0,.5,0Z" id="elkhex38zrqo" class="animable" style="transform-origin: 244.835px 173.62px;"></path></g></g></g></g></g><g id="freepik--Ambulance--inject-67" class="animable" style="transform-origin: 362.8px 396.743px;"><path d="M328,409.14h-3.19c-3,0-5.51,2.93-5.51,6.53s2.47,6.53,5.51,6.53H328c3.05,0,5.52-2.92,5.52-6.53S331.08,409.14,328,409.14Z" style="fill: rgb(38, 50, 56); transform-origin: 326.41px 415.67px;" id="eljpvlgjv5z2n" class="animable"></path><g id="elj1vgokj2fb"><path d="M333.55,415.67c0,3.61-2.47,6.53-5.52,6.53s-5.51-2.92-5.51-6.53,2.47-6.53,5.51-6.53S333.55,412.07,333.55,415.67Z" style="fill: rgb(255, 255, 255); isolation: isolate; opacity: 0.2; transform-origin: 328.035px 415.67px;" class="animable"></path></g><g id="elasxz6p8wffa"><path d="M328,419.81c-1.69,0-3.12-1.9-3.12-4.14s1.43-4.13,3.12-4.13,3.13,1.89,3.13,4.13S329.73,419.81,328,419.81Z" style="opacity: 0.2; transform-origin: 328.005px 415.675px;" class="animable"></path></g><path d="M374.06,409.14h-3.18c-3.05,0-5.52,2.93-5.52,6.53s2.47,6.53,5.52,6.53h3.18c3.05,0,5.52-2.92,5.52-6.53S377.11,409.14,374.06,409.14Z" style="fill: rgb(38, 50, 56); transform-origin: 372.47px 415.67px;" id="el3cfptftmyea" class="animable"></path><g id="elsp941x8poqt"><path d="M379.58,415.67c0,3.61-2.47,6.53-5.52,6.53s-5.51-2.92-5.51-6.53,2.47-6.53,5.51-6.53S379.58,412.07,379.58,415.67Z" style="fill: rgb(255, 255, 255); isolation: isolate; opacity: 0.2; transform-origin: 374.065px 415.67px;" class="animable"></path></g><g id="elt88ahnsw0m"><path d="M374.06,419.81c-1.69,0-3.12-1.9-3.12-4.14s1.43-4.13,3.12-4.13,3.13,1.89,3.13,4.13S375.76,419.81,374.06,419.81Z" style="opacity: 0.2; transform-origin: 374.065px 415.675px;" class="animable"></path></g><path d="M325.53,396.49v17.85a2.81,2.81,0,0,0,2.8,2.8h76.74a2.81,2.81,0,0,0,2.81-2.8V396.49Z" style="fill: rgb(38, 50, 56); transform-origin: 366.705px 406.815px;" id="elx5w6j2u6o6h" class="animable"></path><path d="M354,409.14h-3.19c-3,0-5.51,2.93-5.51,6.53s2.47,6.53,5.51,6.53H354c3,0,5.52-2.92,5.52-6.53S357.09,409.14,354,409.14Z" style="fill: rgb(38, 50, 56); transform-origin: 352.41px 415.67px;" id="el5wmaehewk83" class="animable"></path><g id="el0odekx9qvivl"><path d="M359.56,415.67c0,3.61-2.47,6.53-5.52,6.53s-5.52-2.92-5.52-6.53,2.47-6.53,5.52-6.53S359.56,412.07,359.56,415.67Z" style="fill: rgb(255, 255, 255); isolation: isolate; opacity: 0.2; transform-origin: 354.04px 415.67px;" class="animable"></path></g><g id="elomlt2tnhb5"><path d="M354,419.81c-1.69,0-3.12-1.9-3.12-4.14s1.43-4.13,3.12-4.13,3.13,1.89,3.13,4.13S355.74,419.81,354,419.81Z" style="fill: rgb(255, 255, 255); isolation: isolate; opacity: 0.2; transform-origin: 354.005px 415.675px;" class="animable"></path></g><path d="M400.07,409.14h-3.19c-3,0-5.51,2.93-5.51,6.53s2.47,6.53,5.51,6.53h3.19c3.05,0,5.52-2.92,5.52-6.53S403.12,409.14,400.07,409.14Z" style="fill: rgb(38, 50, 56); transform-origin: 398.48px 415.67px;" id="el9dm6vvxazej" class="animable"></path><g id="eln72rwvk3yhk"><path d="M405.59,415.67c0,3.61-2.47,6.53-5.52,6.53s-5.51-2.92-5.51-6.53,2.47-6.53,5.51-6.53S405.59,412.07,405.59,415.67Z" style="fill: rgb(255, 255, 255); isolation: isolate; opacity: 0.2; transform-origin: 400.075px 415.67px;" class="animable"></path></g><g id="el4ir7nr9gkgt"><path d="M400.07,419.81c-1.69,0-3.12-1.9-3.12-4.14s1.43-4.13,3.12-4.13,3.13,1.89,3.13,4.13S401.77,419.81,400.07,419.81Z" style="fill: rgb(255, 255, 255); isolation: isolate; opacity: 0.2; transform-origin: 400.075px 415.675px;" class="animable"></path></g><path d="M367.45,373.13A1.86,1.86,0,0,1,365.6,375H346.06a1.86,1.86,0,1,1,0-3.71H365.6A1.85,1.85,0,0,1,367.45,373.13Z" style="fill: rgb(64, 123, 255); transform-origin: 355.757px 373.145px;" id="elwpz5ke5tdt7" class="animable"></path><path d="M367.45,373.13A1.86,1.86,0,0,1,365.6,375H354.07a1.86,1.86,0,1,1,0-3.71H365.6A1.85,1.85,0,0,1,367.45,373.13Z" style="fill: rgb(38, 50, 56); transform-origin: 359.762px 373.145px;" id="elzf43b5peqz" class="animable"></path><path d="M367.45,373.13A1.86,1.86,0,0,1,365.6,375h-8.53a1.86,1.86,0,1,1,0-3.71h8.53A1.85,1.85,0,0,1,367.45,373.13Z" style="fill: rgb(64, 123, 255); transform-origin: 361.262px 373.145px;" id="else5a2krb46o" class="animable"></path><path d="M411.63,397.81v15.74a2,2,0,0,1-2,2h-3.07c-.05-4.09-3-7.4-6.51-7.4s-6.47,3.32-6.52,7.42l-33,.06c0-4.13-2.94-7.48-6.52-7.48s-6.51,3.37-6.52,7.51h-6.19l-.23,0H341l-24.45.05a2.57,2.57,0,0,1-2.58-2.8c.18-1.94.43-4.58.65-7,.08-.77.15-1.51.21-2.18a8.62,8.62,0,0,1,2.05-4.81v0a9.16,9.16,0,0,1,1-1l6.45-5.44,9.93-15.11a8.58,8.58,0,0,1,7.16-3.86h62.47a5.19,5.19,0,0,1,1.85.34,5.39,5.39,0,0,1,1.2.66,5.51,5.51,0,0,1,.68.6,4.91,4.91,0,0,1,1,1.53c.06.13.11.27.16.41a4.86,4.86,0,0,1,.21.95Z" style="fill: rgb(64, 123, 255); transform-origin: 362.795px 394.61px;" id="elwoxtc3ltmsb" class="animable"></path><g id="elm1owpk2ldkf"><path d="M411.63,397.81v15.74a2,2,0,0,1-2,2h-3.07c-.05-4.09-3-7.4-6.51-7.4s-6.47,3.32-6.52,7.42l-33,.06c0-4.13-2.94-7.48-6.52-7.48s-6.51,3.37-6.52,7.51h-6.19l-.23,0H341l-24.45.05a2.57,2.57,0,0,1-2.58-2.8c.18-1.94.43-4.58.65-7,.08-.77.15-1.51.21-2.18a8.62,8.62,0,0,1,2.05-4.81v0a9.16,9.16,0,0,1,1-1l6.45-5.44,9.93-15.11a8.58,8.58,0,0,1,7.16-3.86h62.47a5.19,5.19,0,0,1,1.85.34,5.39,5.39,0,0,1,1.2.66,5.51,5.51,0,0,1,.68.6,4.91,4.91,0,0,1,1,1.53c.06.13.11.27.16.41a4.86,4.86,0,0,1,.21.95Z" style="fill: rgb(255, 255, 255); isolation: isolate; opacity: 0.7; transform-origin: 362.795px 394.61px;" class="animable"></path></g><g id="elz0dhfnm8n"><path d="M411.64,397.81v15.74a2,2,0,0,1-2,2h-3.07c0-4.09-3-7.4-6.51-7.4s-6.47,3.32-6.52,7.42l-33,.07h0c0-4.13-2.94-7.48-6.52-7.48s-6.51,3.37-6.52,7.51h-5.95a1,1,0,0,1-.24,0,1.65,1.65,0,0,1-.32,0,2.59,2.59,0,0,1-2-2.75c.16-1.83.4-4.3.62-6.57.08-.9.17-1.78.24-2.57a8.7,8.7,0,0,1,3.05-5.81l1.64-1.39,4.8-4,8-15.3a6.84,6.84,0,0,1,6.05-3.67H403.9a5.19,5.19,0,0,1,1.85.34,5.39,5.39,0,0,1,1.2.66,6.35,6.35,0,0,1,.68.6,4.91,4.91,0,0,1,1,1.53c.06.13.11.27.16.41a4.87,4.87,0,0,1,.22.95l2.38,18,.13,1Z" style="fill: rgb(255, 255, 255); isolation: isolate; opacity: 0.3; transform-origin: 375.31px 394.644px;" class="animable"></path></g><polygon points="325.53 391.88 348.18 391.88 354.92 379.48 333.76 379.48 325.53 391.88" style="fill: rgb(38, 50, 56); transform-origin: 340.225px 385.68px;" id="el7k8ae2csx4c" class="animable"></polygon><g id="elyhmld6vgcfb"><path d="M316.71,406a2.6,2.6,0,0,1-2.08-.07c.08-.77.15-1.51.22-2.18a8.48,8.48,0,0,1,2-4.81,4.58,4.58,0,0,1,.55,1.53C317.62,401.52,316.71,406,316.71,406Z" style="fill: rgb(255, 255, 255); isolation: isolate; opacity: 0.6; transform-origin: 316.032px 402.562px;" class="animable"></path></g><g id="elsea8ic6yj5c"><path d="M318,400.78h17.88s-2.23,4.53-1.9,5.85a23.87,23.87,0,0,1-9.31,2c-5.19,0-7.23-2.43-7.23-2.43A41.18,41.18,0,0,0,318,400.78Z" style="opacity: 0.2; transform-origin: 326.66px 404.705px;" class="animable"></path></g><path d="M337.56,411.64a1.43,1.43,0,0,1-1.2,1.58c-.66,0-1.19-.71-1.19-1.58s.53-1.58,1.19-1.58A1.43,1.43,0,0,1,337.56,411.64Z" style="fill: rgb(255, 255, 255); isolation: isolate; transform-origin: 336.37px 411.64px;" id="eldu4r7hfhah" class="animable"></path><ellipse cx="316.05" cy="411.54" rx="1.19" ry="1.58" style="fill: rgb(255, 255, 255); isolation: isolate; transform-origin: 316.05px 411.54px;" id="elqux7ztxzulb" class="animable"></ellipse><ellipse cx="332.65" cy="412.38" rx="0.64" ry="0.84" style="fill: rgb(255, 255, 255); isolation: isolate; transform-origin: 332.65px 412.38px;" id="els986q54gfy" class="animable"></ellipse><ellipse cx="318.57" cy="412.38" rx="0.64" ry="0.84" style="fill: rgb(255, 255, 255); isolation: isolate; transform-origin: 318.57px 412.38px;" id="elseuzhp0693g" class="animable"></ellipse><path d="M351,392.47l7.06-13h9.27v12.4s-7.56-.09-9.27,3.38H351Z" style="fill: rgb(38, 50, 56); transform-origin: 359.165px 387.36px;" id="elymrrtyrxp2d" class="animable"></path><rect x="368.64" y="379.48" width="11.27" height="12.4" style="fill: rgb(38, 50, 56); transform-origin: 374.275px 385.68px;" id="el6z3p1yw6qzh" class="animable"></rect><path d="M340.6,396.06h-.42l3.23-2.6h.4l-1.3,2.6h-.41l.31-.6h-1.07Zm2-1,.59-1.14-1.39,1.14Z" style="fill: rgb(64, 123, 255); transform-origin: 341.995px 394.76px;" id="elmhxerhr3kck" class="animable"></path><path d="M337.57,396.06l2.26-2.6h.33l-.67,1.72,2.35-1.72h.33l-2.26,2.6h-.38l1.48-1.7-1.93,1.41h-.17l.54-1.43-1.51,1.72Z" style="fill: rgb(64, 123, 255); transform-origin: 339.87px 394.76px;" id="elhbfvguglldl" class="animable"></path><path d="M336.64,394.71c-.07-.11,0-.31.23-.57a1.83,1.83,0,0,1,1.37-.68h1l-2.27,2.6h-1.06c-.55,0-.61-.26-.22-.7A2.08,2.08,0,0,1,336.64,394.71Zm-.37,1h.65l.65-.75h-.64a1,1,0,0,0-.79.38C335.91,395.57,336,395.68,336.27,395.68Zm1.69-1.84a1,1,0,0,0-.75.36c-.21.24-.15.36.12.36h.57l.62-.72Z" style="fill: rgb(64, 123, 255); transform-origin: 337.34px 394.76px;" id="elp15nij0yygj" class="animable"></path><path d="M333.7,396.1c-.59,0-.58-.41.08-1.17l1.28-1.47h.39l-1.26,1.45c-.47.54-.47.77-.12.77a1.78,1.78,0,0,0,1.21-.77l1.26-1.45h.39l-1.27,1.47A2.88,2.88,0,0,1,333.7,396.1Z" style="fill: rgb(64, 123, 255); transform-origin: 335.1px 394.78px;" id="el4g2xd2mapiy" class="animable"></path><path d="M332.24,396.06h-1.52l.35-.41h1.12l1.91-2.19h.4Z" style="fill: rgb(64, 123, 255); transform-origin: 332.61px 394.76px;" id="el69s8c3g0jyr" class="animable"></path><path d="M328.78,396.06h-.41l3.23-2.6H332l-1.3,2.6h-.41l.31-.6h-1.07Zm2-1,.59-1.14-1.4,1.14Z" style="fill: rgb(64, 123, 255); transform-origin: 330.185px 394.76px;" id="elsslf7xhg6k" class="animable"></path><path d="M328.85,393.46l-1.54,1.76,2.72-1.76h.32l-2.26,2.6h-.39l1.53-1.76-2.71,1.76h-.33l2.26-2.6Z" style="fill: rgb(64, 123, 255); transform-origin: 328.27px 394.76px;" id="el0x2b4016zu7" class="animable"></path><path d="M324.59,396.1c-.36,0-.52-.15-.48-.44l.52-.29c0,.21.08.31.3.31a2.43,2.43,0,0,0,1.56-.92c.47-.54.48-.92,0-.92a1.65,1.65,0,0,0-.83.31v-.29a2.33,2.33,0,0,1,1.22-.44c.66,0,.66.56,0,1.34A3.64,3.64,0,0,1,324.59,396.1Z" style="fill: rgb(64, 123, 255); transform-origin: 325.739px 394.76px;" id="el5msezzo564o" class="animable"></path><path d="M323.34,395.66l.62-.72h-1l.34-.4h1l.59-.68h-1.17l.35-.4h1.57l-2.27,2.6h-1.6l.35-.4Z" style="fill: rgb(64, 123, 255); transform-origin: 323.705px 394.76px;" id="elm7p5a5tb1y" class="animable"></path><rect x="394.26" y="380.55" width="2.69" height="11.33" style="fill: rgb(64, 123, 255); transform-origin: 395.605px 386.215px;" id="elz2fs029x5fa" class="animable"></rect><g id="elrlodetfi1vs"><rect x="394.26" y="380.55" width="2.69" height="11.33" style="fill: rgb(64, 123, 255); transform-origin: 395.605px 386.215px; transform: rotate(90deg);" class="animable"></rect></g><path d="M411.53,397H376.1a23.47,23.47,0,0,0-12.88,3.83L361,402.29H343v-1h17.63l2-1.31a24.55,24.55,0,0,1,13.43-4h35.3Z" style="fill: rgb(64, 123, 255); transform-origin: 377.265px 399.135px;" id="eldf1fr05v8ck" class="animable"></path><path d="M334.67,406.3c.27-1.85,1.75-5.52,3.13-6.76s6.35-3.34,6.74-3c2.12,1.73-3.29,8.78-4.93,9.77S334.5,407.45,334.67,406.3Z" style="fill: rgb(255, 255, 255); isolation: isolate; transform-origin: 339.845px 401.806px;" id="elbcq2ehuqik" class="animable"></path></g><defs>     <filter id="active" height="200%">         <feMorphology in="SourceAlpha" result="DILATED" operator="dilate" radius="2"></feMorphology>                <feFlood flood-color="#32DFEC" flood-opacity="1" result="PINK"></feFlood>        <feComposite in="PINK" in2="DILATED" operator="in" result="OUTLINE"></feComposite>        <feMerge>            <feMergeNode in="OUTLINE"></feMergeNode>            <feMergeNode in="SourceGraphic"></feMergeNode>        </feMerge>    </filter>    <filter id="hover" height="200%">        <feMorphology in="SourceAlpha" result="DILATED" operator="dilate" radius="2"></feMorphology>                <feFlood flood-color="#ff0000" flood-opacity="0.5" result="PINK"></feFlood>        <feComposite in="PINK" in2="DILATED" operator="in" result="OUTLINE"></feComposite>        <feMerge>            <feMergeNode in="OUTLINE"></feMergeNode>            <feMergeNode in="SourceGraphic"></feMergeNode>        </feMerge>            <feColorMatrix type="matrix" values="0   0   0   0   0                0   1   0   0   0                0   0   0   0   0                0   0   0   1   0 "></feColorMatrix>    </filter></defs></svg>